<?xml version="1.0" standalone="no"?><!DOCTYPE svg PUBLIC "-//W3C//DTD SVG 1.1//EN" "http://www.w3.org/Graphics/SVG/1.1/DTD/svg11.dtd" ><svg xmlns="http://www.w3.org/2000/svg"><metadata></metadata><defs><font id="Hanyi HYRunYuan-75W Bold v5.00" horiz-adv-x="1000"><font-face font-family="HYRunYuan-75W" font-weight="700" font-stretch="normal" units-per-em="1000" panose-1="0 2 6 0 4 1 1 1 1 1" ascent="916" descent="-301" x-height="1" bbox="26 -114 978 807" underline-thickness="50" underline-position="-248" unicode-range="U+00a6-fe67" /><missing-glyph horiz-adv-x="1000" d="M84 77 l0 -78 q2 -24 26 -26 l78 0 q24 2 26 26 l0 78 q-2 24 -26 26 l-78 0 q-24 -2 -26 -26 ZM84 672 l34 -439 q1 -28 28 -30 l7 0 q11 0 19 7 q8 10 8 23 l34 439 q0 18 -13 31 q-11 10 -27 10 l-51 0 q-17 0 -29 -11 q-10 -13 -10 -30 Z" /><glyph glyph-name="" unicode="&#x201c;" d="M686 620 l0 -91 q1 -25 26 -27 l71 0 q25 2 27 27 l0 78 q-2 25 -27 27 l-29 0 q1 19 13 35 q16 20 38 33 q6 3 10 9 q2 6 -1 11 l-9 18 q-2 7 -8 10 q-8 0 -15 -4 q-41 -22 -70 -60 q-23 -29 -26 -66 ZM467 620 l0 -91 q2 -25 27 -27 l70 0 q25 2 27 27 l0 78 q-2 25 -27 27 l-29 0 q2 20 16 36 q15 19 35 32 q7 4 11 10 q1 5 -2 10 l-9 18 q-2 7 -8 10 q-8 0 -15 -4 q-41 -22 -70 -60 q-23 -29 -26 -66 Z" /><glyph glyph-name="" unicode="&#x201d;" d="M186 530 l9 -18 q2 -7 8 -10 q8 0 15 4 q41 22 70 60 q23 29 26 66 l0 91 q-1 25 -26 27 l-71 0 q-25 -2 -27 -27 l0 -78 q2 -25 27 -27 l29 0 q-3 -21 -16 -37 q-15 -18 -35 -31 q-6 -3 -10 -9 q-2 -6 1 -11 ZM405 530 l9 -18 q2 -7 8 -10 q8 0 15 4 q41 22 70 60 q23 29 26 66 l0 91 q-2 25 -27 27 l-70 0 q-25 -2 -27 -27 l0 -78 q2 -25 27 -27 l29 0 q-3 -20 -16 -36 q-15 -19 -35 -32 q-7 -3 -10 -10 q-2 -5 1 -10 Z" /><glyph glyph-name="" unicode="&#x4e00;" d="M56 377 q0 6 5 11.5 q5 5.5 12 5.5 l853 0 q6 0 11.5 -5.5 q5.5 -5.5 5.5 -11.5 l0 -30 q0 -7 -5.5 -12 q-5.5 -5 -11.5 -5 l-853 0 q-7 0 -12 5 q-5 5 -5 12 l0 30 Z" /><glyph glyph-name="" unicode="&#x4e1a;" d="M55 -8 q0 7 5 12 q5 5 12 5 l250 0 l0 752 q0 11 9.5 20.5 q9.5 9.5 20.5 9.5 l56 0 q11 0 20.5 -9.5 q9.5 -9.5 9.5 -20.5 l0 -752 l122 0 l0 752 q0 11 9.5 20.5 q9.5 9.5 20.5 9.5 l56 0 q11 0 20.5 -9.5 q9.5 -9.5 9.5 -20.5 l0 -752 l254 0 q6 0 11.5 -5 q5.5 -5 5.5 -12 l0 -22 q0 -6 -5.5 -11.5 q-5.5 -5.5 -11.5 -5.5 l-858 0 q-7 0 -12 5.5 q-5 5.5 -5 11.5 l0 22 ZM687 154 q19 56 35.5 108 q16.5 52 30 103 q13.5 51 25.5 104 q12 53 23 112 q3 17 15.5 23 q12.5 6 28.5 1 q20 -6 36.5 -13 q16.5 -7 29.5 -15 q17 -11 19 -21.5 q2 -10.5 -3 -27.5 q-16 -50 -40 -106.5 q-24 -56.5 -51.5 -110 q-27.5 -53.5 -57.5 -100 q-30 -46.5 -57 -77.5 q-3 -4 -10 -3.5 q-7 0.5 -13 4 q-6 3.5 -9.5 8.5 q-3.5 5 -1.5 11 ZM76 587 q-2 6 1 11.5 q3 5.5 8.5 9.5 q5.5 4 11.5 5 q6 1 9 -3 q72 -87 117.5 -162.5 q45.5 -75.5 65.5 -132.5 q8 -21 10 -43 q2 -22 -6 -41 q-8 -21 -18.5 -37.5 q-10.5 -16.5 -25.5 -30.5 q-7 -7 -16.5 -10.5 q-9.5 -3.5 -18.5 -2 q-9 1.5 -16 9.5 q-7 8 -10 24 q-17 99 -46 198 q-29 99 -66 205 Z" /><glyph glyph-name="" unicode="&#x4e2a;" d="M39 336 q72 57 129 106.5 q57 49.5 102.5 101 q45.5 51.5 83 109.5 q37.5 58 71.5 132 q5 11 16 16 q11 5 31 0 q20 -5 37.5 -11 q17.5 -6 38.5 -15 q13 -6 15 -19.5 q2 -13.5 -3 -22.5 l-15 -25 q46 -47 90 -83 q44 -36 91.5 -65 q47.5 -29 101.5 -52.5 q54 -23.5 122 -45.5 q27 -8 8 -36 q-14 -22 -28 -42 q-14 -20 -32 -40 q-16 -18 -29.5 -19 q-13.5 -1 -36.5 11 q-81 40 -161.5 119 q-80.5 79 -150.5 214 q-32 -48 -73 -96.5 q-41 -48.5 -96.5 -95.5 q-55.5 -47 -128.5 -91.5 q-73 -44.5 -168 -84.5 q-5 -2 -9 2 q-4 4 -7 10 q-3 6 -3 13 q0 7 4 10 ZM428 469 q0 17 11.5 26 q11.5 9 27.5 9 l56 0 q17 0 28 -9 q11 -9 11 -26 l0 -530 q0 -17 -11 -26 q-11 -9 -28 -9 l-56 0 q-16 0 -27.5 9 q-11.5 9 -11.5 26 l0 530 Z" /><glyph glyph-name="" unicode="&#x4e45;" d="M44 -63 q98 64 178 133.5 q80 69.5 144 149.5 q64 80 113 173 q49 93 85 205 l-198 0 q-53 -111 -122 -190 q-69 -79 -154 -141 q-5 -3 -11 -1 q-6 2 -10.5 6.5 q-4.5 4.5 -6 11 q-1.5 6.5 2.5 12.5 q77 107 134.5 227.5 q57.5 120.5 83.5 244.5 q7 31 42 25 l75 -18 q16 -3 20.5 -15 q4.5 -12 1.5 -23 q-8 -23 -16 -44.5 q-8 -21.5 -16 -41.5 l190 0 l6 21 q2 11 13 18 q11 7 22 5 l82 -19 q11 -2 18 -13 q7 -11 5 -22 q-52 -180 -127 -308 q62 -92 150 -157.5 q88 -65.5 197 -103.5 q11 -4 14 -13.5 q3 -9.5 -4 -22.5 q-13 -23 -35.5 -50 q-22.5 -27 -43.5 -48 q-12 -12 -22.5 -14 q-10.5 -2 -20.5 3 q-94 48 -161 137 q-67 89 -108 216 q-48 -73 -104.5 -130.5 q-56.5 -57.5 -120 -103.5 q-63.5 -46 -133.5 -81.5 q-70 -35.5 -146 -64.5 q-5 -2 -10.5 2.5 q-5.5 4.5 -9 11 q-3.5 6.5 -3.5 13 q0 6.5 6 10.5 Z" /><glyph glyph-name="" unicode="&#x4e4b;" d="M95 584 q0 8 6 14 q6 6 14 6 l350 0 q-7 6 -12 17 q-18 41 -39.5 77.5 q-21.5 36.5 -45.5 72.5 q-3 4 -1.5 9.5 q1.5 5.5 5 10 q3.5 4.5 9.5 7 q6 2.5 13 0.5 q24 -6 50 -14.5 q26 -8.5 49 -18 q23 -9.5 41 -19 q18 -9.5 28 -17.5 q21 -17 21.5 -35.5 q0.5 -18.5 -12.5 -38.5 q-8 -12 -18 -23 q-10 -11 -24 -23 l-7 -5 l209 0 q7 10 12 19 q5 9 10 17 q10 17 25.5 19.5 q15.5 2.5 31.5 -7.5 q25 -17 45.5 -30 q20.5 -13 31.5 -24 q13 -13 12 -24 q-1 -11 -14 -27 q-24 -29 -73.5 -78 q-49.5 -49 -123 -105.5 q-73.5 -56.5 -171 -114.5 q-97.5 -58 -217.5 -105 q16 -17 32.5 -29.5 q16.5 -12.5 36.5 -20.5 q20 -8 44 -13 q24 -5 56 -8 q21 -3 59 -4 q38 -1 84.5 -1.5 q46.5 -0.5 96.5 0 q50 0.5 95.5 1 q45.5 0.5 81.5 1.5 q36 1 55 2 q17 1 20.5 -6 q3.5 -7 -0.5 -19 q-2 -7 -6 -18 q-4 -11 -9.5 -23 q-5.5 -12 -11 -23.5 q-5.5 -11.5 -9.5 -20.5 q-9 -18 -19 -23 q-10 -5 -27 -7 q-12 -1 -41 -1.5 q-29 -0.5 -67.5 -0.5 q-38.5 0 -82 0.5 q-43.5 0.5 -84 2 q-40.5 1.5 -73.5 3 q-33 1.5 -50 4.5 q-45 7 -78 20.5 q-33 13.5 -59 36 q-26 22.5 -47 55 q-21 32.5 -41 76.5 q-9 -25 -20 -52.5 q-11 -27.5 -22.5 -54.5 q-11.5 -27 -23.5 -51 q-12 -24 -23 -41 q-14 -21 -27 -21.5 q-13 -0.5 -32 16.5 q-10 9 -26.5 25 q-16.5 16 -29.5 32 q-25 28 5 52 q22 18 46.5 39 q24.5 21 48.5 42.5 q24 21.5 45.5 41 q21.5 19.5 36.5 34.5 q15 14 36 -10 q67 45 128 93 q61 48 114 95.5 q53 47.5 97.5 93 q44.5 45.5 77.5 85.5 l-572 0 q-8 0 -14 6 q-6 6 -6 14 l0 17 Z" /><glyph glyph-name="" unicode="&#x4e86;" d="M84 705 q0 8 6 14 q6 6 14 6 l623 0 l11 17 q12 20 29 21.5 q17 1.5 39 -11.5 q35 -20 61 -43 q15 -15 12.5 -28 q-2.5 -13 -18.5 -28 q-18 -18 -51.5 -46 q-33.5 -28 -73.5 -58 q-40 -30 -83.5 -58.5 q-43.5 -28.5 -80.5 -47.5 l0 -368 q0 -56 -17.5 -96.5 q-17.5 -40.5 -68.5 -56.5 q-17 -5 -48.5 -10 q-31.5 -5 -69.5 -5 q-23 -2 -36 21 q-6 11 -17 33.5 q-11 22.5 -19 44.5 q-5 14 0 21 q5 7 18 8 l59 8 q30 4 46.5 18 q16.5 14 16.5 50 l0 364 q0 11 9.5 21 q9.5 10 21.5 10 l74 0 q6 0 12 -3 q38 42 72.5 84.5 q34.5 42.5 61.5 80.5 l-583 0 q-8 0 -14 6 q-6 6 -6 14 l0 17 Z" /><glyph glyph-name="" unicode="&#x4e8c;" d="M56 38 q0 6 5 11.5 q5 5.5 12 5.5 l855 0 q6 0 11.5 -5.5 q5.5 -5.5 5.5 -11.5 l0 -30 q0 -7 -5.5 -12 q-5.5 -5 -11.5 -5 l-855 0 q-7 0 -12 5 q-5 5 -5 12 l0 30 ZM121 685 q0 6 5 11.5 q5 5.5 12 5.5 l713 0 q6 0 11.5 -5.5 q5.5 -5.5 5.5 -11.5 l0 -30 q0 -7 -5.5 -12 q-5.5 -5 -11.5 -5 l-713 0 q-7 0 -12 5 q-5 5 -5 12 l0 30 Z" /><glyph glyph-name="" unicode="&#x4eab;" d="M117 309 q0 6 5 11.5 q5 5.5 12 5.5 l574 0 l16 18 q12 14 27 16 q15 2 32 -6 q15 -8 32.5 -19.5 q17.5 -11.5 27.5 -20.5 q22 -22 -9 -41 q-21 -13 -57 -29 q-36 -16 -75 -31.5 q-39 -15.5 -76 -27.5 q-37 -12 -61 -18 l0 -17 l363 0 q6 0 11.5 -5.5 q5.5 -5.5 5.5 -11.5 l0 -16 q0 -7 -5.5 -12 q-5.5 -5 -11.5 -5 l-363 0 l0 -68 q0 -23 -3 -42 q-3 -19 -12.5 -34 q-9.5 -15 -27 -26 q-17.5 -11 -45.5 -17 q-14 -3 -34 -5 q-20 -2 -38 -3 q-10 -1 -18 4 q-8 5 -16 20 q-7 13 -16 29.5 q-9 16.5 -14 28.5 q-5 11 -0.5 18.5 q4.5 7.5 14.5 8.5 l38 5 q29 4 39 17.5 q10 13.5 10 33.5 l0 30 l-369 0 q-7 0 -12 5 q-5 5 -5 12 l0 16 q0 6 5 11.5 q5 5.5 12 5.5 l369 0 l0 40 q0 11 9.5 21 q9.5 10 21.5 10 l61 0 q8 0 14 -4 q6 -4 11 -10 q26 19 49.5 35.5 q23.5 16.5 43.5 33.5 l-518 0 q-7 0 -12 5 q-5 5 -5 12 l0 16 ZM197 581 q0 11 9.5 20.5 q9.5 9.5 20.5 9.5 l62 0 q8 0 15.5 -5 q7.5 -5 11.5 -13 l359 0 q2 10 10.5 18 q8.5 8 19.5 8 l63 0 q11 0 20.5 -9.5 q9.5 -9.5 9.5 -20.5 l0 -169 q0 -11 -9.5 -20.5 q-9.5 -9.5 -20.5 -9.5 l-63 0 q-14 0 -24 13 l-364 0 q-3 -9 -11 -15 q-8 -6 -17 -6 l-62 0 q-11 0 -20.5 9.5 q-9.5 9.5 -9.5 20.5 l0 169 ZM56 691 q0 6 5 11.5 q5 5.5 12 5.5 l386 0 q-11 17 -25 34 q-14 17 -35 37 q-3 3 -2.5 7.5 q0.5 4.5 3.5 9 q3 4.5 7.5 8 q4.5 3.5 10.5 2.5 q54 -8 90.5 -17.5 q36.5 -9.5 53.5 -20.5 q24 -17 7 -45 l-12 -15 l371 0 q6 0 11.5 -5.5 q5.5 -5.5 5.5 -11.5 l0 -16 q0 -7 -5.5 -12 q-5.5 -5 -11.5 -5 l-855 0 q-7 0 -12 5 q-5 5 -5 12 l0 16 ZM319 451 l356 0 l0 94 l-356 0 l0 -94 Z" /><glyph glyph-name="" unicode="&#x4f20;" d="M447 422 l-118 0 q-8 0 -14.5 5 q-6.5 5 -6.5 13 l0 16 q0 8 6.5 13 q6.5 5 14.5 5 l132 0 l35 133 l-121 0 q-8 0 -14 5 q-6 5 -6 13 l0 14 q0 8 6 13 q6 5 14 5 l134 0 l31 115 q2 11 12.5 19 q10.5 8 21.5 6 l72 -11 q11 -2 18 -12 q7 -10 5 -21 l-28 -96 l251 0 q8 0 14 -5 q6 -5 6 -13 l0 -14 q0 -8 -6 -13 q-6 -5 -14 -5 l-265 0 l-37 -133 l336 0 q8 0 14 -5 q6 -5 6 -13 l0 -16 q0 -8 -6 -13 q-6 -5 -14 -5 l-351 0 l-36 -127 l210 0 q4 7 7 13.5 q3 6.5 6 13.5 q6 14 20 16.5 q14 2.5 28 -5.5 q23 -11 39.5 -21.5 q16.5 -10.5 26.5 -18.5 q24 -20 6 -44 q-16 -20 -39 -42.5 q-23 -22.5 -48.5 -45 q-25.5 -22.5 -51 -43 q-25.5 -20.5 -47.5 -35.5 q53 -20 84 -36 q22 -13 28.5 -29 q6.5 -16 1.5 -45 q-2 -14 -5.5 -26.5 q-3.5 -12.5 -10.5 -24.5 q-12 -23 -30.5 -25.5 q-18.5 -2.5 -41.5 17.5 q-50 43 -128 98 q-78 55 -197 122 q-4 3 -3.5 9 q0.5 6 3.5 12 q3 6 8 10.5 q5 4.5 9 3.5 q21 -5 47.5 -12 q26.5 -7 56.5 -16 q30 -9 61 -19 q31 -10 61 -20 q21 35 42.5 71.5 q21.5 36.5 41.5 73.5 l-201 0 q-6 -8 -16 -13 q-10 -5 -19 -3 l-59 14 q-11 2 -17 12.5 q-6 10.5 -2 21.5 l37 143 ZM35 326 q71 135 115 243 q44 108 67 206 q2 13 13 18.5 q11 5.5 25 2.5 q21 -5 40.5 -11.5 q19.5 -6.5 32.5 -11.5 q26 -11 18 -37 q-21 -57 -43.5 -104.5 q-22.5 -47.5 -45.5 -88.5 q17 -9 17 -26 l0 -581 q0 -11 -9.5 -20.5 q-9.5 -9.5 -20.5 -9.5 l-59 0 q-11 0 -20.5 9.5 q-9.5 9.5 -9.5 20.5 l0 462 q-24 -28 -48 -51.5 q-24 -23.5 -48 -46.5 q-4 -4 -9.5 -2.5 q-5.5 1.5 -10 5.5 q-4.5 4 -6.5 10.5 q-2 6.5 2 12.5 Z" /><glyph glyph-name="" unicode="&#x4f4d;" d="M35 302 q36 67 62 127 q26 60 46 116.5 q20 56.5 35 113 q15 56.5 29 116.5 q2 13 13 18.5 q11 5.5 25 2.5 q21 -5 40.5 -11.5 q19.5 -6.5 32.5 -11.5 q26 -11 18 -37 q-21 -58 -42.5 -107.5 q-21.5 -49.5 -43.5 -93.5 q8 -4 14 -12 q6 -8 6 -16 l0 -571 q0 -11 -9.5 -20.5 q-9.5 -9.5 -20.5 -9.5 l-59 0 q-11 0 -20.5 9.5 q-9.5 9.5 -9.5 20.5 l0 437 q-42 -55 -90 -100 q-4 -4 -10 -2 q-6 2 -10.5 6.5 q-4.5 4.5 -7 11.5 q-2.5 7 1.5 13 ZM299 -10 q0 7 5 12 q5 5 12 5 l316 0 q18 61 33 123.5 q15 62.5 27 122.5 q12 60 20.5 116 q8.5 56 14.5 105 q2 15 13.5 22 q11.5 7 25.5 4 l72 -17 q18 -5 23 -16.5 q5 -11.5 3 -23.5 q-12 -53 -32.5 -114 q-20.5 -61 -44.5 -120.5 q-24 -59.5 -49.5 -112.5 q-25.5 -53 -47.5 -89 l239 0 q6 0 11.5 -5 q5.5 -5 5.5 -12 l0 -20 q0 -6 -5.5 -11.5 q-5.5 -5.5 -11.5 -5.5 l-613 0 q-7 0 -12 5.5 q-5 5.5 -5 11.5 l0 20 ZM516 765 q-2 4 -0.5 9.5 q1.5 5.5 5.5 10.5 q4 5 10 8 q6 3 12 1 q16 -5 35 -12.5 q19 -7.5 38 -16.5 q19 -9 35 -18.5 q16 -9.5 27 -19.5 q17 -15 18.5 -30 q1.5 -15 -6.5 -33 q-13 -27 -33 -47 l256 0 q6 0 11.5 -5.5 q5.5 -5.5 5.5 -11.5 l0 -20 q0 -7 -5.5 -12 q-5.5 -5 -11.5 -5 l-570 0 q-7 0 -12 5 q-5 5 -5 12 l0 20 q0 6 5 11.5 q5 5.5 12 5.5 l249 0 q-1 2 -2 4 q-1 2 -2 5 q-9 26 -27.5 62.5 q-18.5 36.5 -44.5 76.5 ZM386 483 q-2 4 2 9 q4 5 10.5 8 q6.5 3 14 3 q7.5 0 12.5 -7 q23 -27 47 -62 q24 -35 45 -70.5 q21 -35.5 37 -68 q16 -32.5 24 -54.5 q7 -20 9.5 -35 q2.5 -15 2.5 -27 q0 -12 -3 -22.5 q-3 -10.5 -8 -22.5 q-4 -11 -12.5 -22.5 q-8.5 -11.5 -14.5 -19.5 q-11 -14 -24.5 -19.5 q-13.5 -5.5 -25.5 -4 q-12 1.5 -20.5 10.5 q-8.5 9 -10.5 26 q-3 31 -10 73.5 q-7 42.5 -17.5 92 q-10.5 49.5 -25 103.5 q-14.5 54 -32.5 109 Z" /><glyph glyph-name="" unicode="&#x4f60;" d="M35 326 q71 129 112 240 q41 111 64 209 q2 13 13 18.5 q11 5.5 25 2.5 q21 -5 40.5 -11.5 q19.5 -6.5 32.5 -11.5 q26 -11 18 -37 q-42 -113 -86 -193 q17 -9 17 -26 l0 -581 q0 -11 -9.5 -20.5 q-9.5 -9.5 -20.5 -9.5 l-59 0 q-11 0 -20.5 9.5 q-9.5 9.5 -9.5 20.5 l0 456 q-42 -51 -90 -94 q-4 -4 -10 -2.5 q-6 1.5 -11 6 q-5 4.5 -7.5 11.5 q-2.5 7 1.5 13 ZM751 473 q14 38 24.5 71 q10.5 33 18.5 59 l-262 0 q-31 -58 -72.5 -113.5 q-41.5 -55.5 -98.5 -102.5 q-5 -3 -11 -1.5 q-6 1.5 -11 5.5 q-5 4 -7.5 9.5 q-2.5 5.5 0.5 10.5 q29 57 50.5 105.5 q21.5 48.5 37 92 q15.5 43.5 26.5 83.5 q11 40 20 79 q3 14 13.5 20 q10.5 6 25.5 5 l69 -16 q14 -2 18 -15.5 q4 -13.5 -2 -29.5 q-8 -20 -16 -39.5 q-8 -19.5 -17 -39.5 l253 0 l2 9 q5 23 19 28 q14 5 37 -5 q19 -8 30.5 -14 q11.5 -6 23.5 -13 q36 -20 10 -54 q-14 -18 -31 -39 q-17 -21 -36.5 -42 q-19.5 -21 -40.5 -41.5 q-21 -20.5 -42 -36.5 q-5 -4 -11 -2.5 q-6 1.5 -11.5 6 q-5.5 4.5 -8 10.5 q-2.5 6 -0.5 11 ZM480 -16 q-5 9 -2.5 17.5 q2.5 8.5 18.5 10.5 l41 6 q21 5 30.5 18 q9.5 13 9.5 39 l0 391 q0 17 8 28.5 q8 11.5 35 11.5 l33 0 q28 0 36 -12.5 q8 -12.5 8 -27.5 l0 -416 q0 -54 -12.5 -87 q-12.5 -33 -55.5 -48 q-14 -5 -26.5 -7.5 q-12.5 -2.5 -34.5 -4.5 q-22 -2 -32.5 2 q-10.5 4 -19.5 18 q-11 15 -21 33 q-10 18 -15 28 ZM298 43 q23 48 40 87 q17 39 30 76 q13 37 23.5 75 q10.5 38 20.5 82 q2 11 12.5 18.5 q10.5 7.5 26.5 3.5 q19 -5 36.5 -10.5 q17.5 -5.5 24.5 -8.5 q14 -7 17 -19 q3 -12 -2 -26 q-13 -38 -34.5 -81.5 q-21.5 -43.5 -48.5 -85.5 q-27 -42 -57.5 -77.5 q-30.5 -35.5 -60.5 -55.5 q-5 -3 -10.5 -1 q-5.5 2 -10.5 6 q-4 4 -6.5 8.5 q-2.5 4.5 -0.5 8.5 ZM747 350 q-2 5 1.5 10 q3.5 5 8.5 10 q5 3 10 4.5 q5 1.5 9 -1.5 q32 -24 58 -49 q26 -25 46.5 -48.5 q20.5 -23.5 35 -44 q14.5 -20.5 23.5 -34.5 q13 -22 14.5 -42 q1.5 -20 -10.5 -46 q-4 -9 -10.5 -20.5 q-6.5 -11.5 -20.5 -25.5 q-18 -17 -39 -15 q-21 2 -27 25 q-20 72 -43 140.5 q-23 68.5 -56 136.5 Z" /><glyph glyph-name="" unicode="&#x4fdd;" d="M371 736 q0 11 9.5 20.5 q9.5 9.5 20.5 9.5 l60 0 q9 0 17.5 -7 q8.5 -7 11.5 -16 l264 0 q1 11 10 19 q9 8 20 8 l60 0 q11 0 20.5 -9.5 q9.5 -9.5 9.5 -20.5 l0 -288 q0 -11 -9.5 -20.5 q-9.5 -9.5 -20.5 -9.5 l-60 0 q-11 0 -20.5 9.5 q-9.5 9.5 -9.5 20.5 l0 2 l-263 0 l0 -6 q0 -11 -9.5 -20.5 q-9.5 -9.5 -20.5 -9.5 l-60 0 q-11 0 -20.5 9.5 q-9.5 9.5 -9.5 20.5 l0 288 ZM272 -12 q40 39 71.5 72 q31.5 33 57.5 66 q26 33 48.5 68 q22.5 35 45.5 78 l-186 0 q-8 0 -14 5 q-6 5 -6 13 l0 15 q0 8 6 13 q6 5 14 5 l250 0 l0 74 q0 11 9.5 20.5 q9.5 9.5 20.5 9.5 l64 0 q11 0 20.5 -9.5 q9.5 -9.5 9.5 -20.5 l0 -74 l249 0 q8 0 14.5 -5 q6.5 -5 6.5 -13 l0 -15 q0 -8 -6.5 -13 q-6.5 -5 -14.5 -5 l-201 0 q25 -35 49 -61.5 q24 -26.5 50.5 -48 q26.5 -21.5 57 -40.5 q30.5 -19 68.5 -38 q22 -11 5 -33 q-12 -16 -27.5 -34.5 q-15.5 -18.5 -31.5 -32.5 q-15 -15 -27 -15 q-12 0 -32 17 q-19 15 -40.5 40.5 q-21.5 25.5 -42.5 61.5 q-21 36 -39 82 q-18 46 -30 102 l-8 0 l0 -336 q0 -11 -9.5 -20.5 q-9.5 -9.5 -20.5 -9.5 l-64 0 q-11 0 -20.5 9.5 q-9.5 9.5 -9.5 20.5 l0 232 q-55 -65 -125.5 -120 q-70.5 -55 -142.5 -90 q-4 -2 -9 1 q-5 3 -9 8.5 q-4 5.5 -5 11.5 q-1 6 4 9 ZM34 308 q66 136 106 252 q40 116 61 215 q2 13 12.5 18.5 q10.5 5.5 22.5 2.5 q20 -5 40.5 -11.5 q20.5 -6.5 31.5 -11.5 q25 -11 17 -37 q-17 -50 -34.5 -93.5 q-17.5 -43.5 -36.5 -81.5 q7 -9 7 -18 l0 -608 q0 -11 -9.5 -20.5 q-9.5 -9.5 -20.5 -9.5 l-60 0 q-11 0 -20.5 9.5 q-9.5 9.5 -9.5 20.5 l0 437 q-39 -49 -81 -91 q-3 -4 -9 -2.5 q-6 1.5 -11 6 q-5 4.5 -7.5 11 q-2.5 6.5 1.5 12.5 ZM491 503 l263 0 l0 190 l-263 0 l0 -190 Z" /><glyph glyph-name="" unicode="&#x518d;" d="M58 714 q0 8 6 13.5 q6 5.5 14 5.5 l847 0 q8 0 14.5 -5.5 q6.5 -5.5 6.5 -13.5 l0 -14 q0 -8 -6.5 -13 q-6.5 -5 -14.5 -5 l-363 0 l0 -108 l156 0 q0 37 47 37 l30 0 q28 0 38 -9 q10 -9 10 -26 l0 -374 l81 0 q8 0 14.5 -5 q6.5 -5 6.5 -13 l0 -15 q0 -8 -6.5 -13 q-6.5 -5 -14.5 -5 l-81 0 l0 -92 q0 -59 -15 -90.5 q-15 -31.5 -57 -48.5 q-14 -6 -35 -10 q-21 -4 -39 -6 q-11 -1 -18 -0.5 q-7 0.5 -12 3 q-5 2.5 -9 7 q-4 4.5 -9 12.5 q-11 16 -22 33 q-11 17 -18 31 q-12 23 14 29 l52 9 q12 3 20.5 6.5 q8.5 3.5 13.5 11 q5 7.5 7 19 q2 11.5 2 30.5 l0 56 l-434 0 l0 -214 q0 -11 -9.5 -20.5 q-9.5 -9.5 -20.5 -9.5 l-65 0 q-11 0 -20.5 9.5 q-9.5 9.5 -9.5 20.5 l0 214 l-85 0 q-8 0 -14 5 q-6 5 -6 13 l0 15 q0 8 6 13 q6 5 14 5 l85 0 l0 378 q0 11 9.5 20.5 q9.5 9.5 20.5 9.5 l65 0 q11 0 20.5 -9.5 q9.5 -9.5 9.5 -20.5 l0 -6 l156 0 l0 108 l-362 0 q-8 0 -14 5 q-6 5 -6 13 l0 14 ZM284 202 l156 0 l0 139 l-156 0 l0 -139 ZM284 388 l156 0 l0 139 l-156 0 l0 -139 ZM562 202 l156 0 l0 139 l-156 0 l0 -139 ZM562 388 l156 0 l0 139 l-156 0 l0 -139 Z" /><glyph glyph-name="" unicode="&#x51fa;" d="M97 269 q0 11 9.5 20.5 q9.5 9.5 20.5 9.5 l62 0 q11 0 20.5 -9.5 q9.5 -9.5 9.5 -20.5 l0 -257 l218 0 l0 394 l-167 0 l0 -16 q0 -11 -9.5 -20.5 q-9.5 -9.5 -20.5 -9.5 l-62 0 q-11 0 -20.5 9.5 q-9.5 9.5 -9.5 20.5 l0 285 q0 11 9.5 20.5 q9.5 9.5 20.5 9.5 l62 0 q11 0 20.5 -9.5 q9.5 -9.5 9.5 -20.5 l0 -219 l167 0 l0 310 q0 11 9.5 20.5 q9.5 9.5 20.5 9.5 l66 0 q11 0 20.5 -9.5 q9.5 -9.5 9.5 -20.5 l0 -310 l168 0 l0 217 q0 11 9.5 20.5 q9.5 9.5 20.5 9.5 l62 0 q11 0 20.5 -9.5 q9.5 -9.5 9.5 -20.5 l0 -281 q0 -11 -9.5 -20.5 q-9.5 -9.5 -20.5 -9.5 l-62 0 q-11 0 -20.5 9.5 q-9.5 9.5 -9.5 20.5 l0 14 l-168 0 l0 -394 l218 0 l0 260 q0 11 9.5 20.5 q9.5 9.5 20.5 9.5 l62 0 q11 0 20.5 -9.5 q9.5 -9.5 9.5 -20.5 l0 -336 q0 -11 -9.5 -20.5 q-9.5 -9.5 -20.5 -9.5 l-62 0 q-11 0 -20.5 9.5 q-9.5 9.5 -9.5 20.5 l0 26 l-562 0 l0 -14 q0 -11 -9.5 -20.5 q-9.5 -9.5 -20.5 -9.5 l-62 0 q-11 0 -20.5 9.5 q-9.5 9.5 -9.5 20.5 l0 321 Z" /><glyph glyph-name="" unicode="&#x5206;" d="M42 -69 q67 45 115 91.5 q48 46.5 80 98.5 q32 52 50.5 110 q18.5 58 26.5 127 l-111 0 q-7 0 -12 5 q-5 5 -5 12 l0 17 q0 6 5 11.5 q5 5.5 12 5.5 l428 0 q7 27 42 26 q17 -1 27.5 -2 q10.5 -1 22.5 -3 q21 -2 29.5 -12.5 q8.5 -10.5 6.5 -27.5 q-2 -43 -4.5 -92.5 q-2.5 -49.5 -5 -96 q-2.5 -46.5 -5 -86 q-2.5 -39.5 -5.5 -61.5 q-3 -26 -8.5 -47.5 q-5.5 -21.5 -16.5 -38.5 q-11 -17 -29 -30 q-18 -13 -47 -20 q-20 -5 -37.5 -7.5 q-17.5 -2.5 -39.5 -4.5 q-21 -1 -31 2.5 q-10 3.5 -20 20.5 q-11 17 -17 30 q-6 13 -14 30 q-9 18 -3 26 q6 8 20 9 q13 0 25 2 q11 1 22 2.5 q11 1.5 19 3.5 q23 5 35.5 17 q12.5 12 16.5 43 q2 17 4 46.5 q2 29.5 4 65.5 q2 36 3.5 76 q1.5 40 3.5 78 l-180 0 q-15 -92 -43.5 -162.5 q-28.5 -70.5 -75.5 -125.5 q-47 -55 -114 -97 q-67 -42 -158 -76 q-5 -2 -10.5 1.5 q-5.5 3.5 -8.5 9.5 q-3 6 -3 12.5 q0 6.5 6 10.5 ZM560 770 q-1 4 3.5 8 q4.5 4 10.5 6.5 q6 2.5 12 2 q6 -0.5 9 -4.5 q37 -67 75.5 -114 q38.5 -47 81.5 -81.5 q43 -34.5 92.5 -61 q49.5 -26.5 109.5 -53.5 q10 -4 12.5 -11.5 q2.5 -7.5 -7.5 -20.5 q-9 -13 -25 -33.5 q-16 -20.5 -33 -37.5 q-9 -9 -16 -13.5 q-7 -4.5 -15 -4.5 q-8 0 -17.5 3.5 q-9.5 3.5 -23.5 11.5 q-41 22 -81.5 59 q-40.5 37 -76.5 88 q-36 51 -65 115.5 q-29 64.5 -46 141.5 ZM32 359 q51 48 93 94 q42 46 76.5 93 q34.5 47 62 96.5 q27.5 49.5 48.5 103.5 q5 11 16 15 q11 4 22 -1 q7 -3 18 -7.5 q11 -4.5 21.5 -9 q10.5 -4.5 20 -8.5 q9.5 -4 14.5 -7 q14 -8 15.5 -15.5 q1.5 -7.5 -4.5 -21.5 q-66 -125 -157.5 -215.5 q-91.5 -90.5 -229.5 -146.5 q-5 -3 -10 -0.5 q-5 2.5 -8 7.5 q-3 5 -3 11.5 q0 6.5 5 11.5 Z" /><glyph glyph-name="" unicode="&#x522b;" d="M82 294 q-7 0 -12 5 q-5 5 -5 12 l0 14 q0 6 5 11.5 q5 5.5 12 5.5 l128 0 q1 8 1 15.5 q0 7.5 0 15.5 l0 51 q0 12 9 20 q-11 -7 -19 -7 l-52 0 q-11 0 -20.5 9.5 q-9.5 9.5 -9.5 20.5 l0 268 q0 11 9.5 20.5 q9.5 9.5 20.5 9.5 l52 0 q11 0 20.5 -9.5 q9.5 -9.5 9.5 -20.5 l0 -1 l201 0 q0 11 9.5 20 q9.5 9 20.5 9 l54 0 q11 0 20.5 -9.5 q9.5 -9.5 9.5 -20.5 l0 -267 q0 -11 -9.5 -20.5 q-9.5 -9.5 -20.5 -9.5 l-54 0 q-11 0 -20.5 9.5 q-9.5 9.5 -9.5 20.5 l0 11 l-201 0 l0 -10 q0 -10 -9 -21 q8 8 19 8 l64 0 q11 0 20.5 -9.5 q9.5 -9.5 9.5 -20.5 l-3 -80 l0 -2 l99 0 q1 30 40 29 q16 -1 26.5 -1.5 q10.5 -0.5 23.5 -2.5 q19 -2 24.5 -9.5 q5.5 -7.5 5.5 -20.5 q-1 -14 -2 -39.5 q-1 -25.5 -2.5 -57 q-1.5 -31.5 -3.5 -65.5 q-2 -34 -4 -64 q-2 -30 -3.5 -53 q-1.5 -23 -2.5 -32 q-5 -45 -22 -68 q-17 -23 -46 -32 q-10 -3 -26.5 -6 q-16.5 -3 -38.5 -5 q-17 -2 -25.5 0 q-8.5 2 -17.5 17 q-18 29 -34 62 q-13 28 14 30 l46 8 q19 5 25 15.5 q6 10.5 9 35.5 q2 21 4 48.5 q2 27.5 3.5 56 q1.5 28.5 2.5 56.5 q1 28 2 50 l-102 0 q-9 -81 -29 -139.5 q-20 -58.5 -53 -103.5 q-33 -45 -80.5 -81.5 q-47.5 -36.5 -110.5 -73.5 q-4 -3 -9 0 q-5 3 -9 8.5 q-4 5.5 -5 11 q-1 5.5 2 8.5 q44 47 75 91 q31 44 52 88 q21 44 32 91 q11 47 16 100 l-126 0 ZM871 793 q22 -2 31 -10 q9 -8 9 -22 l0 -719 q0 -54 -13.5 -80.5 q-13.5 -26.5 -47.5 -41.5 q-13 -6 -29 -9.5 q-16 -3.5 -39 -6.5 q-20 -2 -28 2 q-8 4 -17 18 q-11 16 -19 30 q-8 14 -17 32 q-7 13 -3.5 21 q3.5 8 16.5 9 l37 8 q29 7 35 22 q6 15 6 44 l0 675 q0 29 43 28 l36 0 ZM722 155 q0 -11 -9.5 -20.5 q-9.5 -9.5 -20.5 -9.5 l-54 0 q-11 0 -20.5 9.5 q-9.5 9.5 -9.5 20.5 l0 508 q0 11 9.5 20.5 q9.5 9.5 20.5 9.5 l54 0 q11 0 20.5 -9.5 q9.5 -9.5 9.5 -20.5 l0 -508 ZM231 524 l201 0 l0 163 l-201 0 l0 -163 Z" /><glyph glyph-name="" unicode="&#x534e;" d="M518 765 q0 15 10.5 24 q10.5 9 28.5 8 l43 0 q18 0 27.5 -9.5 q9.5 -9.5 9.5 -24.5 l0 -163 q48 29 84.5 59 q36.5 30 68.5 61 q13 13 25 15 q12 2 32 -10 q11 -6 23 -14.5 q12 -8.5 29 -22.5 q12 -11 10 -23 q-2 -12 -15 -23 q-38 -31 -106 -67.5 q-68 -36.5 -151 -69.5 l0 -37 q0 -17 2 -27.5 q2 -10.5 9 -16.5 q7 -6 19.5 -8.5 q12.5 -2.5 32.5 -4.5 q24 -2 62 -1.5 q38 0.5 74 2 q36 1.5 63.5 3.5 q27.5 2 32.5 2 q17 1 21.5 -4 q4.5 -5 -0.5 -20 q-5 -14 -11.5 -31 q-6.5 -17 -14.5 -32 q-8 -16 -17.5 -20 q-9.5 -4 -27.5 -6 q-19 -2 -49 -3 q-30 -1 -63.5 -1 q-33.5 0 -66.5 1 q-33 1 -58 4 q-33 3 -57 11.5 q-24 8.5 -39.5 25.5 q-15.5 17 -23 44.5 q-7.5 27.5 -7.5 69.5 l0 7 q-41 -13 -81 -23 q-40 -10 -79 -17 q-5 -1 -9 3 q-4 4 -5.5 10 q-1.5 6 -1 11.5 q0.5 5.5 4.5 7.5 q49 20 91 39.5 q42 19.5 80 38.5 l0 232 ZM438 270 q0 18 13 27 q13 9 32 9 l46 0 q18 0 31 -9 q13 -9 13 -27 l0 -83 l356 0 q8 0 13.5 -6 q5.5 -6 5.5 -14 l0 -17 q0 -8 -5.5 -14 q-5.5 -6 -13.5 -6 l-356 0 l0 -193 q0 -18 -13 -28 q-13 -10 -31 -10 l-46 0 q-19 0 -32 10 q-13 10 -13 28 l0 193 l-363 0 q-8 0 -14 6 q-6 6 -6 14 l0 17 q0 8 6 14 q6 6 14 6 l363 0 l0 83 ZM59 453 q43 47 78 88 q35 41 63 80 q28 39 50.5 78 q22.5 39 42.5 83 q8 17 19.5 19.5 q11.5 2.5 27.5 -2.5 q16 -5 32.5 -12 q16.5 -7 31.5 -15 q17 -10 18 -24.5 q1 -14.5 -10 -29.5 q-20 -27 -42 -53.5 q-22 -26.5 -46 -52.5 l0 -322 q0 -18 -11 -27.5 q-11 -9.5 -29 -9.5 l-38 0 q-39 0 -39 37 l0 215 q-32 -25 -64 -46 q-32 -21 -64 -36 q-6 -2 -11 0.5 q-5 2.5 -8.5 8 q-3.5 5.5 -4 11.5 q-0.5 6 3.5 10 Z" /><glyph glyph-name="" unicode="&#x56de;" d="M780 730 q0 11 9.5 20.5 q9.5 9.5 20.5 9.5 l64 0 q11 0 20.5 -9.5 q9.5 -9.5 9.5 -20.5 l0 -794 q0 -11 -9.5 -20.5 q-9.5 -9.5 -20.5 -9.5 l-64 0 q-11 0 -20.5 9.5 q-9.5 9.5 -9.5 20.5 l0 37 l-561 0 l0 -38 q0 -11 -9.5 -20.5 q-9.5 -9.5 -20.5 -9.5 l-64 0 q-11 0 -20.5 9.5 q-9.5 9.5 -9.5 20.5 l0 788 q0 11 9.5 20.5 q9.5 9.5 20.5 9.5 l64 0 q11 0 20 -9 q9 -9 10 -20 l561 0 l0 6 ZM219 21 l561 0 l0 655 l-561 0 l0 -655 ZM320 529 q0 11 9.5 20.5 q9.5 9.5 20.5 9.5 l58 0 q11 0 20.5 -9.5 q9.5 -9.5 9.5 -20.5 l0 -6 l123 0 l0 7 q0 11 9.5 20.5 q9.5 9.5 20.5 9.5 l58 0 q11 0 20.5 -9.5 q9.5 -9.5 9.5 -20.5 l0 -353 q0 -11 -9.5 -20.5 q-9.5 -9.5 -20.5 -9.5 l-58 0 q-11 0 -20.5 9.5 q-9.5 9.5 -9.5 20.5 l0 15 l-123 0 l0 -24 q0 -11 -9.5 -20.5 q-9.5 -9.5 -20.5 -9.5 l-58 0 q-11 0 -20.5 9.5 q-9.5 9.5 -9.5 20.5 l0 361 ZM438 240 l123 0 l0 235 l-123 0 l0 -235 Z" /><glyph glyph-name="" unicode="&#x56fe;" d="M790 746 q0 11 9.5 20.5 q9.5 9.5 20.5 9.5 l60 0 q11 0 20.5 -9.5 q9.5 -9.5 9.5 -20.5 l0 -812 q0 -11 -9.5 -20.5 q-9.5 -9.5 -20.5 -9.5 l-60 0 q-11 0 -20.5 9.5 q-9.5 9.5 -9.5 20.5 l0 26 l-580 0 l0 -24 q0 -11 -9.5 -20.5 q-9.5 -9.5 -20.5 -9.5 l-60 0 q-11 0 -20.5 9.5 q-9.5 9.5 -9.5 20.5 l0 804 q0 11 9.5 20.5 q9.5 9.5 20.5 9.5 l60 0 q10 0 19 -8 q9 -8 11 -18 l580 0 l0 2 ZM214 298 q64 28 119.5 54.5 q55.5 26.5 103.5 61.5 q-17 20 -31 41.5 q-14 21.5 -25 45.5 q-28 -29 -60 -54 q-32 -25 -69 -44 q-4 -2 -8.5 0 q-4.5 2 -8 6 q-3.5 4 -5 8.5 q-1.5 4.5 0.5 7.5 q24 33 43 62.5 q19 29.5 35 58 q16 28.5 29 57 q13 28.5 24 58.5 q6 17 13.5 23 q7.5 6 23.5 2 q20 -5 31.5 -8 q11.5 -3 29.5 -11 q15 -7 19 -17.5 q4 -10.5 -7 -27.5 l-13 -21 l139 0 q4 5 7 13 q5 11 18.5 13 q13.5 2 25.5 -4 l58 -31 q11 -5 14.5 -15.5 q3.5 -10.5 -4.5 -21.5 q-30 -43 -62.5 -77 q-32.5 -34 -67.5 -62 q80 -25 181 -35 q24 -6 12 -29 q-7 -12 -18 -30.5 q-11 -18.5 -25 -34.5 q-11 -12 -20 -14.5 q-9 -2.5 -29 2.5 q-60 17 -106.5 37.5 q-46.5 20.5 -82.5 46.5 q-61 -32 -129 -54 q-68 -22 -145 -39 q-5 -2 -9 2 q-4 4 -6 9 l0 -268 l580 0 l0 687 l-580 0 l0 -402 q1 1 1.5 2 q0.5 1 2.5 2 ZM322 148 q-5 2 -6 6.5 q-1 4.5 0.5 9.5 q1.5 5 4.5 8.5 q3 3.5 7 3.5 q38 -3 78.5 -6.5 q40.5 -3.5 78 -8 q37.5 -4.5 69.5 -10 q32 -5.5 52 -10.5 q26 -8 36.5 -19 q10.5 -11 11.5 -32 q1 -9 0 -22 q-1 -13 -3 -21 q-5 -22 -21 -26.5 q-16 -4.5 -36 6.5 q-23 13 -56.5 28.5 q-33.5 15.5 -70.5 32 q-37 16.5 -75 32 q-38 15.5 -70 28.5 ZM388 280 q-3 2 -3.5 6 q-0.5 4 1.5 8.5 q2 4.5 5.5 7.5 q3.5 3 7.5 3 q60 -5 108 -14.5 q48 -9.5 72 -17.5 q16 -6 23.5 -14.5 q7.5 -8.5 8.5 -24.5 q1 -11 -0.5 -24 q-1.5 -13 -6.5 -25 q-6 -15 -22 -19 q-16 -4 -36 12 q-33 27 -68.5 49.5 q-35.5 22.5 -89.5 52.5 ZM398 521 q36 -38 90 -66 q45 41 82 98 l-145 0 l-27 -32 Z" /><glyph glyph-name="" unicode="&#x5916;" d="M32 -64 q72 61 132.5 126 q60.5 65 108 141.5 q47.5 76.5 82.5 169 q35 92.5 57 207.5 l-139 0 q-35 -82 -76 -145 q33 -14 56 -28 q23 -14 40 -30 q12 -11 15.5 -24 q3.5 -13 -2.5 -34 q-10 -30 -28 -51 q-11 -13 -27.5 -14.5 q-16.5 -1.5 -26.5 21.5 q-8 21 -14.5 36.5 q-6.5 15.5 -13 28.5 q-6.5 13 -13.5 25.5 q-7 12.5 -16 26.5 q-24 -32 -51 -61.5 q-27 -29.5 -57 -58.5 q-3 -3 -9 -1 q-6 2 -11 6.5 q-5 4.5 -7.5 11 q-2.5 6.5 1.5 12.5 q23 37 47.5 89.5 q24.5 52.5 47 114 q22.5 61.5 40.5 129.5 q18 68 28 137 q1 11 10.5 19.5 q9.5 8.5 20.5 6.5 l85 -16 q11 -2 17.5 -11.5 q6.5 -9.5 3.5 -20.5 q-10 -32 -19 -61 q-9 -29 -20 -55 l128 0 q0 4 1 7 q2 11 12 19 q10 8 21 6 l73 -13 q11 -2 18 -12 q7 -10 5 -21 q-21 -104 -46 -187 q-25 -83 -56.5 -149.5 q-31.5 -66.5 -71 -120 q-39.5 -53.5 -88 -99 q-48.5 -45.5 -107.5 -85.5 q-59 -40 -130 -80 q-5 -2 -11 2 q-6 4 -10 10.5 q-4 6.5 -5 13.5 q-1 7 5 12 ZM618 763 q0 11 9.5 20.5 q9.5 9.5 20.5 9.5 l68 0 q11 0 20.5 -9.5 q9.5 -9.5 9.5 -20.5 l0 -271 q80 -39 123.5 -69 q43.5 -30 66.5 -52 q11 -12 14 -31.5 q3 -19.5 -4 -42.5 q-5 -17 -11.5 -29.5 q-6.5 -12.5 -17.5 -24.5 q-12 -14 -31.5 -15 q-19.5 -1 -31.5 23 q-21 42 -48.5 87.5 q-27.5 45.5 -59.5 90.5 l0 -495 q0 -11 -9.5 -20.5 q-9.5 -9.5 -20.5 -9.5 l-68 0 q-11 0 -20.5 9.5 q-9.5 9.5 -9.5 20.5 l0 829 Z" /><glyph glyph-name="" unicode="&#x59cb;" d="M78 303 q11 48 22.5 116.5 q11.5 68.5 20.5 138.5 l-51 0 q-8 0 -12 5.5 q-4 5.5 -4 13.5 l0 15 q0 8 4 13 q4 5 12 5 l57 0 q6 49 9.5 91 q3.5 42 5.5 70 q1 12 8.5 19 q7.5 7 24.5 5 q10 -1 17.5 -1.5 q7.5 -0.5 15 -1.5 q7.5 -1 16.5 -2.5 q9 -1.5 21 -3.5 q27 -4 21 -37 q-6 -34 -13 -69 q-7 -35 -15 -70 l60 0 q1 3 1 11 q0 11 10 20 q10 9 21 9 l59 -4 q11 -1 20 -10 q9 -9 9 -20 q-12 -144 -36 -247.5 q-24 -103.5 -64 -182.5 q45 -29 65 -47 q21 -19 23 -34.5 q2 -15.5 -4 -40.5 q-3 -14 -9.5 -29.5 q-6.5 -15.5 -12.5 -24.5 q-15 -23 -33 -25 q-18 -2 -34 24 q-13 21 -27 41 q-14 20 -30 40 q-38 -50 -86.5 -93.5 q-48.5 -43.5 -109.5 -89.5 q-5 -3 -10.5 -0.5 q-5.5 2.5 -10 8 q-4.5 5.5 -6 12 q-1.5 6.5 3.5 12.5 q49 60 87 113.5 q38 53.5 67 109.5 q-23 23 -49 47.5 q-26 24.5 -56 50.5 q-10 8 -11.5 17 q-1.5 9 3.5 26 ZM785 305 q0 11 9.5 20.5 q9.5 9.5 20.5 9.5 l62 0 q11 0 20.5 -9.5 q9.5 -9.5 9.5 -20.5 l0 -372 q0 -11 -9.5 -20.5 q-9.5 -9.5 -20.5 -9.5 l-62 0 q-11 0 -20.5 9.5 q-9.5 9.5 -9.5 20.5 l0 32 l-213 0 l0 -29 q0 -11 -9.5 -20.5 q-9.5 -9.5 -20.5 -9.5 l-60 0 q-11 0 -20.5 9.5 q-9.5 9.5 -9.5 20.5 l0 362 q0 11 9.5 20.5 q9.5 9.5 20.5 9.5 l60 0 q10 0 19 -8 q9 -8 11 -18 l213 0 l0 3 ZM726 628 q-3 3 -1 9 q2 6 6.5 11 q4.5 5 9.5 7.5 q5 2.5 10 0.5 q33 -18 63.5 -37.5 q30.5 -19.5 55.5 -38 q25 -18.5 43.5 -35 q18.5 -16.5 28.5 -27.5 q14 -16 17.5 -30.5 q3.5 -14.5 -4.5 -37.5 q-8 -21 -18 -36 q-10 -15 -23 -26 q-17 -14 -34 -10.5 q-17 3.5 -25 22.5 q-6 14 -15 33.5 q-9 19.5 -22 45.5 q-30 -9 -75.5 -20.5 q-45.5 -11.5 -94.5 -22.5 q-49 -11 -97 -20.5 q-48 -9.5 -84 -16.5 q-17 -4 -24.5 2 q-7.5 6 -12.5 23 q-2 10 -5.5 26 q-3.5 16 -5.5 30 q-5 36 29 36 l11 0 q23 35 41.5 67 q18.5 32 34.5 63.5 q16 31.5 29 64.5 q13 33 26 69 q5 15 17 18 q12 3 25 -1 l84 -29 q10 -3 14 -13.5 q4 -10.5 -3 -21.5 q-49 -70 -93 -121.5 q-44 -51.5 -87 -93.5 l246 6 q-14 24 -30.5 50 q-16.5 26 -36.5 54 ZM572 16 l213 0 l0 235 l-213 0 l0 -235 ZM226 239 q26 66 42.5 143 q16.5 77 25.5 176 l-68 0 q-19 -75 -41.5 -145 q-22.5 -70 -49.5 -126 l91 -48 Z" /><glyph glyph-name="" unicode="&#x5b50;" d="M59 359 q0 8 6 13.5 q6 5.5 14 5.5 l359 0 l0 125 q0 20 9 28.5 q9 8.5 40 8.5 l36 0 q15 0 26 -3 q26 40 50 80.5 q24 40.5 43 75.5 q-30 0 -67 0 q-37 0 -77.5 0 q-40.5 0 -82 0 q-41.5 0 -80.5 0 q-92 0 -189 1 q-8 0 -13.5 5.5 q-5.5 5.5 -5.5 13.5 l0 14 q0 8 5.5 14 q5.5 6 13.5 6 l524 0 l7 14 q8 18 23 21.5 q15 3.5 41 -3.5 q8 -2 19.5 -5.5 q11.5 -3.5 24.5 -7.5 q13 -4 25 -8.5 q12 -4.5 20 -8.5 q14 -6 19.5 -13.5 q5.5 -7.5 4.5 -15 q-1 -7.5 -6.5 -15.5 q-5.5 -8 -12.5 -15 q-21 -22 -54.5 -51 q-33.5 -29 -70 -57.5 q-36.5 -28.5 -73 -53.5 q-36.5 -25 -64.5 -40 q-1 0 -1 -1 l0 -109 l376 0 q8 0 14 -5.5 q6 -5.5 6 -13.5 l0 -16 q0 -8 -6 -14 q-6 -6 -14 -6 l-376 0 l0 -238 q0 -63 -11 -98 q-11 -35 -47 -57 q-17 -10 -40.5 -16.5 q-23.5 -6.5 -60.5 -10.5 q-24 -3 -33 -0.5 q-9 2.5 -19 19.5 q-11 17 -24 41 q-13 24 -23 41 q-6 11 -3.5 19 q2.5 8 17.5 10 q19 3 37 5.5 q18 2.5 35 6.5 q21 4 29.5 18.5 q8.5 14.5 8.5 47.5 l0 212 l-359 0 q-8 0 -14 6 q-6 6 -6 14 l0 16 Z" /><glyph glyph-name="" unicode="&#x5b58;" d="M166 497 q0 11 9.5 20.5 q9.5 9.5 20.5 9.5 l33 0 q17 30 30.5 59 q13.5 29 25.5 57 l-213 0 q-7 0 -12 5 q-5 5 -5 12 l0 16 q0 6 5 11.5 q5 5.5 12 5.5 l234 0 q8 22 15 42 q7 20 13 38 q2 11 12.5 18 q10.5 7 29.5 2 q19 -5 40.5 -12 q21.5 -7 31.5 -11 q17 -7 20 -17 q3 -10 -4 -26 l-17 -34 l481 0 q6 0 11.5 -5.5 q5.5 -5.5 5.5 -11.5 l0 -16 q0 -7 -5.5 -12 q-5.5 -5 -11.5 -5 l-507 0 q-32 -61 -63.5 -114 q-31.5 -53 -67.5 -101 l0 -494 q0 -11 -9.5 -20.5 q-9.5 -9.5 -20.5 -9.5 l-64 0 q-11 0 -20.5 9.5 q-9.5 9.5 -9.5 20.5 l0 364 q-48 -40 -103 -75 q-5 -3 -11 0.5 q-6 3.5 -9.5 9.5 q-3.5 6 -4.5 13 q-1 7 3 10 q36 42 67 83 q31 41 58 83 l0 75 ZM465 -14 q-5 11 -2.5 19 q2.5 8 19.5 10 l50 10 q23 4 32 18 q9 14 9 46 l0 116 l-233 0 q-7 0 -12 5 q-5 5 -5 12 l0 16 q0 6 5 11.5 q5 5.5 12 5.5 l233 0 l0 82 q0 19 7.5 29.5 q7.5 10.5 33.5 10.5 l41 0 q5 0 8 -1 l46 86 l-297 0 q-7 0 -12 5 q-5 5 -5 12 l0 14 q0 6 5 11.5 q5 5.5 12 5.5 l321 0 l9 20 q8 17 22.5 20 q14.5 3 25.5 -3 q21 -11 35.5 -20 q14.5 -9 31.5 -23 q13 -11 13 -22 q0 -11 -16 -27 q-13 -12 -32.5 -27 q-19.5 -15 -41 -30.5 q-21.5 -15.5 -43.5 -29.5 q-22 -14 -40 -25 l0 -6 l0 -82 l231 0 q6 0 11.5 -5.5 q5.5 -5.5 5.5 -11.5 l0 -16 q0 -7 -5.5 -12 q-5.5 -5 -11.5 -5 l-231 0 l0 -135 q0 -60 -12.5 -93.5 q-12.5 -33.5 -47.5 -50.5 q-17 -9 -39.5 -14 q-22.5 -5 -45.5 -8 q-24 -2 -33.5 1.5 q-9.5 3.5 -19.5 19.5 q-11 17 -20 33.5 q-9 16.5 -14 27.5 Z" /><glyph glyph-name="" unicode="&#x5c4f;" d="M35 -65 q28 67 45.5 128.5 q17.5 61.5 27.5 127.5 q10 66 13.5 140.5 q3.5 74.5 3.5 167.5 l0 244 q0 11 8 20.5 q8 9.5 19 9.5 l69 0 q11 0 20.5 -9.5 q9.5 -9.5 9.5 -20.5 l0 -6 l516 0 l0 5 q0 11 9.5 20.5 q9.5 9.5 20.5 9.5 l62 0 q11 0 20.5 -9.5 q9.5 -9.5 9.5 -20.5 l0 -207 q0 -11 -9.5 -20.5 q-9.5 -9.5 -20.5 -9.5 l-62 0 q-11 0 -20.5 9.5 q-9.5 9.5 -9.5 20.5 l-516 0 q-1 -120 -9 -208.5 q-8 -88.5 -29 -159.5 q-21 -71 -56.5 -131 q-35.5 -60 -91.5 -123 q-3 -3 -9 -2.5 q-6 0.5 -12 4 q-6 3.5 -9 9 q-3 5.5 0 11.5 ZM368 508 q-4 7 3.5 17 q7.5 10 18.5 7 q31 -8 63 -21 q32 -13 51 -27 q14 -11 17 -23.5 q3 -12.5 -2 -24.5 q-11 -23 -24 -37 l144 0 q11 32 19.5 62.5 q8.5 30.5 13.5 50.5 q6 25 37 17 q12 -4 31.5 -12 q19.5 -8 29.5 -13 q27 -13 6 -39 q-13 -17 -32 -34.5 q-19 -17.5 -39 -31.5 l191 0 q6 0 11.5 -5.5 q5.5 -5.5 5.5 -11.5 l0 -13 q0 -7 -5.5 -12 q-5.5 -5 -11.5 -5 l-129 0 l0 -155 l165 0 q6 0 11.5 -5.5 q5.5 -5.5 5.5 -11.5 l0 -14 q0 -7 -5.5 -12 q-5.5 -5 -11.5 -5 l-165 0 l0 -213 q0 -11 -9.5 -20.5 q-9.5 -9.5 -20.5 -9.5 l-64 0 q-11 0 -20.5 9.5 q-9.5 9.5 -9.5 20.5 l0 213 l-148 0 q-12 -46 -32 -82 q-20 -36 -51 -65.5 q-31 -29.5 -74.5 -54 q-43.5 -24.5 -100.5 -47.5 q-4 -2 -8.5 2 q-4.5 4 -8 9.5 q-3.5 5.5 -4 11 q-0.5 5.5 2.5 7.5 q67 54 103.5 105 q36.5 51 52.5 114 l-137 0 q-7 0 -12 5 q-5 5 -5 12 l0 14 q0 6 5 11.5 q5 5.5 12 5.5 l147 0 q5 29 6.5 61 q1.5 32 1.5 69 l0 25 l-104 0 q-7 0 -12 5 q-5 5 -5 12 l0 13 q0 6 5 11.5 q5 5.5 12 5.5 l138 0 q-12 33 -25 56 q-13 23 -34 53 ZM251 583 l516 0 l0 106 l-516 0 l0 -106 ZM515 347 q0 -43 -2.5 -80.5 q-2.5 -37.5 -7.5 -69.5 l138 0 l0 155 l-128 0 l0 -5 Z" /><glyph glyph-name="" unicode="&#x5e55;" d="M57 293 q0 6 5 11.5 q5 5.5 12 5.5 l260 0 q11 14 21 29 q10 15 19 31 l-74 0 q-4 -8 -12 -14 q-8 -6 -16 -6 l-58 0 q-11 0 -20.5 9.5 q-9.5 9.5 -9.5 20.5 l0 223 q0 11 9.5 20.5 q9.5 9.5 20.5 9.5 l58 0 q9 0 17 -6.5 q8 -6.5 11 -14.5 l400 0 q3 9 11 15.5 q8 6.5 18 6.5 l58 0 q11 0 20.5 -9.5 q9.5 -9.5 9.5 -20.5 l0 -222 q0 -11 -9.5 -20.5 q-9.5 -9.5 -20.5 -9.5 l-58 0 q-8 0 -15.5 5 q-7.5 5 -11.5 13 l-181 0 q-11 -17 -21 -31.5 q-10 -14.5 -21 -28.5 l448 0 q6 0 11.5 -5.5 q5.5 -5.5 5.5 -11.5 l0 -12 q0 -7 -5.5 -12 q-5.5 -5 -11.5 -5 l-274 0 q51 -31 126.5 -50.5 q75.5 -19.5 165.5 -31.5 q12 -2 14.5 -9 q2.5 -7 -2.5 -18 q-5 -11 -17 -29.5 q-12 -18.5 -24 -33.5 q-11 -14 -21.5 -18 q-10.5 -4 -25.5 1 q-16 5 -30.5 10 q-14.5 5 -28.5 10 l0 -31 q0 -39 -12.5 -61 q-12.5 -22 -39.5 -33 q-14 -5 -31 -7.5 q-17 -2.5 -36 -4.5 q-14 -1 -21.5 2.5 q-7.5 3.5 -13.5 14.5 q-6 10 -14 25 q-8 15 -12 23 q-4 8 -1 14.5 q3 6.5 13 7.5 l19 3 q21 3 26 11 q5 8 5 22 l0 40 l-133 0 l0 -188 q0 -11 -9.5 -20.5 q-9.5 -9.5 -20.5 -9.5 l-56 0 q-11 0 -20.5 9.5 q-9.5 9.5 -9.5 20.5 l0 188 l-133 0 l0 -132 q0 -11 -9.5 -20.5 q-9.5 -9.5 -20.5 -9.5 l-54 0 q-11 0 -20.5 9.5 q-9.5 9.5 -9.5 20.5 l0 109 q-64 -27 -141 -52 q-5 -1 -9 3 q-4 4 -6.5 10 q-2.5 6 -2.5 11.5 q0 5.5 5 8.5 q85 47 145.5 91 q60.5 44 107.5 94 l-221 0 q-7 0 -12 5 q-5 5 -5 12 l0 12 ZM59 711 q0 6 5 11.5 q5 5.5 12 5.5 l229 0 l0 40 q0 11 9.5 20.5 q9.5 9.5 20.5 9.5 l55 0 q11 0 20.5 -9.5 q9.5 -9.5 9.5 -20.5 l0 -40 l162 0 l0 37 q0 11 9.5 20.5 q9.5 9.5 20.5 9.5 l55 0 q11 0 20.5 -9.5 q9.5 -9.5 9.5 -20.5 l0 -37 l225 0 q6 0 11.5 -5.5 q5.5 -5.5 5.5 -11.5 l0 -12 q0 -7 -5.5 -12 q-5.5 -5 -11.5 -5 l-225 0 l0 -19 q0 -11 -9.5 -20.5 q-9.5 -9.5 -20.5 -9.5 l-55 0 q-11 0 -20.5 9.5 q-9.5 9.5 -9.5 20.5 l0 19 l-162 0 l0 -21 q0 -11 -9.5 -20.5 q-9.5 -9.5 -20.5 -9.5 l-55 0 q-11 0 -20.5 9.5 q-9.5 9.5 -9.5 20.5 l0 21 l-229 0 q-7 0 -12 5 q-5 5 -5 12 l0 12 ZM302 414 l397 0 l0 55 l-397 0 l0 -55 ZM302 513 l397 0 l0 55 l-397 0 l0 -55 ZM597 263 q0 0 -1 1 l-156 0 q-51 -55 -119 -99 l122 0 l0 38 q0 11 9.5 20.5 q9.5 9.5 20.5 9.5 l56 0 q11 0 20.5 -9.5 q9.5 -9.5 9.5 -20.5 l0 -38 l128 0 q-52 42 -90 98 Z" /><glyph glyph-name="" unicode="&#x5f00;" d="M54 353 q0 6 5 11.5 q5 5.5 12 5.5 l195 0 q2 29 3.5 60.5 q1.5 31.5 1.5 66.5 l0 182 l-174 0 q-7 0 -12 5 q-5 5 -5 12 l0 17 q0 6 5 11.5 q5 5.5 12 5.5 l801 0 q6 0 11.5 -5.5 q5.5 -5.5 5.5 -11.5 l0 -17 q0 -7 -5.5 -12 q-5.5 -5 -11.5 -5 l-160 0 l0 -309 l191 0 q6 0 11.5 -5.5 q5.5 -5.5 5.5 -11.5 l0 -21 q0 -7 -5.5 -12 q-5.5 -5 -11.5 -5 l-191 0 l0 -380 q0 -11 -9.5 -20.5 q-9.5 -9.5 -20.5 -9.5 l-68 0 q-11 0 -20.5 9.5 q-9.5 9.5 -9.5 20.5 l0 380 l-224 0 q-11 -67 -32.5 -124 q-21.5 -57 -58.5 -107.5 q-37 -50.5 -91 -95 q-54 -44.5 -129 -86.5 q-4 -2 -9.5 1.5 q-5.5 3.5 -9.5 9 q-4 5.5 -5 12 q-1 6.5 4 11.5 q46 49 80.5 94 q34.5 45 59 91 q24.5 46 40 93.5 q15.5 47.5 24.5 100.5 l-188 0 q-7 0 -12 5 q-5 5 -5 12 l0 21 ZM399 503 q0 -72 -6 -133 l217 0 l0 309 l-211 0 l0 -176 Z" /><glyph glyph-name="" unicode="&#x5f71;" d="M262 479 q-3 2 -1 7 q2 5 7 9 l-50 0 q-2 -11 -10.5 -19 q-8.5 -8 -19.5 -8 l-56 0 q-11 0 -20.5 9.5 q-9.5 9.5 -9.5 20.5 l0 241 q0 11 9.5 20.5 q9.5 9.5 20.5 9.5 l56 0 q8 0 15.5 -5.5 q7.5 -5.5 11.5 -13.5 l228 0 q4 8 12 14.5 q8 6.5 17 6.5 l56 0 q11 0 20.5 -9.5 q9.5 -9.5 9.5 -20.5 l0 -228 q0 -11 -9.5 -20.5 q-9.5 -9.5 -20.5 -9.5 l-56 0 q-14 0 -24 12 l-149 0 q23 -4 44 -9.5 q21 -5.5 36 -11.5 q15 -6 17 -15 q2 -9 -4 -20 l-12 -14 l246 0 q6 0 11.5 -5.5 q5.5 -5.5 5.5 -11.5 l0 -16 q0 -7 -5.5 -12 q-5.5 -5 -11.5 -5 l-557 0 q-7 0 -12 5 q-5 5 -5 12 l0 16 q0 6 5 11.5 q5 5.5 12 5.5 l237 0 q-9 13 -21 28 q-12 15 -23 26 ZM201 -23 q-7 18 12 21 l28 5 q17 5 24 13 q7 8 7 30 l0 98 l-59 0 q-10 -12 -23 -12 l-56 0 q-11 0 -20.5 9.5 q-9.5 9.5 -9.5 20.5 l0 144 q0 11 9.5 20.5 q9.5 9.5 20.5 9.5 l56 0 q8 0 14.5 -4.5 q6.5 -4.5 11.5 -11.5 l214 0 q3 8 11 14 q8 6 17 6 l56 0 q11 0 20.5 -9.5 q9.5 -9.5 9.5 -20.5 l0 -150 q0 -11 -9.5 -20.5 q-9.5 -9.5 -20.5 -9.5 l-56 0 q-15 0 -25 14 l-50 0 l0 -129 q0 -43 -14 -68 q-14 -25 -49 -33 q-12 -3 -23 -4.5 q-11 -1.5 -27 -3.5 q-21 -1 -29.5 2.5 q-8.5 3.5 -16.5 19.5 q-7 14 -13 26 q-6 12 -10 23 ZM507 -69 q57 40 104.5 79.5 q47.5 39.5 87.5 80 q40 40.5 72.5 83.5 q32.5 43 59.5 90 q9 14 21.5 14.5 q12.5 0.5 32.5 -11.5 q17 -11 27.5 -18 q10.5 -7 21.5 -17 q14 -13 13 -24 q-1 -11 -14 -26 q-37 -46 -83 -88.5 q-46 -42.5 -98 -79 q-52 -36.5 -109.5 -65.5 q-57.5 -29 -117.5 -47 q-5 -2 -10 1.5 q-5 3.5 -8 9 q-3 5.5 -3 11 q0 5.5 3 7.5 ZM569 252 q42 34 76 64.5 q34 30.5 63.5 62.5 q29.5 32 56.5 68 q27 36 55 81 q9 15 20.5 16 q11.5 1 31.5 -10 q12 -8 24.5 -16.5 q12.5 -8.5 23.5 -18.5 q15 -14 13.5 -26 q-1.5 -12 -14.5 -27 q-22 -26 -59 -59 q-37 -33 -82 -65 q-45 -32 -94.5 -59 q-49.5 -27 -96.5 -42 q-4 -1 -8.5 2.5 q-4.5 3.5 -8 8.5 q-3.5 5 -4.5 11 q-1 6 3 9 ZM583 526 q73 57 129 120 q56 63 91 129 q8 15 21 16.5 q13 1.5 33 -9.5 q16 -9 26.5 -16.5 q10.5 -7.5 21.5 -17.5 q15 -13 13 -24 q-2 -11 -15 -26 q-22 -25 -53 -52.5 q-31 -27.5 -69.5 -54.5 q-38.5 -27 -83.5 -51.5 q-45 -24.5 -96 -42.5 q-5 -2 -9.5 1.5 q-4.5 3.5 -7.5 8.5 q-3 5 -3.5 10.5 q-0.5 5.5 2.5 8.5 ZM220 188 l208 0 l0 88 l-208 0 l0 -88 ZM39 -56 q34 46 53.5 83 q19.5 37 33.5 75 q3 8 14 11 q11 3 22 -1 q8 -2 23.5 -10 q15.5 -8 22.5 -12 q27 -16 12 -39 q-12 -17 -30.5 -36.5 q-18.5 -19.5 -40.5 -38.5 q-22 -19 -46 -35 q-24 -16 -46 -25 q-3 -2 -8 0.5 q-5 2.5 -8.5 7 q-3.5 4.5 -4.5 10 q-1 5.5 3 10.5 ZM218 539 l224 0 l0 62 l-224 0 l0 -62 ZM218 645 l224 0 l0 61 l-224 0 l0 -61 ZM421 78 q-6 8 1.5 19 q7.5 11 18.5 8 q37 -11 60 -21 q23 -10 39 -22 q13 -9 17.5 -22 q4.5 -13 -2.5 -34 q-2 -8 -5.5 -14.5 q-3.5 -6.5 -7.5 -12.5 q-15 -20 -32.5 -22.5 q-17.5 -2.5 -30.5 23.5 q-6 14 -11 24.5 q-5 10.5 -11 20.5 q-6 10 -14.5 22.5 q-8.5 12.5 -21.5 30.5 Z" /><glyph glyph-name="" unicode="&#x5fc6;" d="M399 28 q-9 32 -4.5 74 q4.5 42 30.5 97 q45 94 121 212 q76 118 167 248 l-308 0 q-8 0 -13.5 5.5 q-5.5 5.5 -5.5 13.5 l0 17 q0 8 5.5 14 q5.5 6 13.5 6 l348 0 l18 24 q9 13 25.5 16.5 q16.5 3.5 36.5 -5.5 q22 -11 38.5 -21 q16.5 -10 21.5 -14 q17 -12 15.5 -28.5 q-1.5 -16.5 -14.5 -31.5 q-121 -147 -211 -272.5 q-90 -125.5 -141 -229.5 q-25 -50 -14.5 -71.5 q10.5 -21.5 45.5 -25.5 q34 -4 81 -5 q47 -1 97 0.5 q50 1.5 97.5 3.5 q47.5 2 83.5 4 q21 2 25 -6 q4 -8 -1 -24 q-5 -17 -11 -31.5 q-6 -14.5 -12 -26.5 q-11 -20 -22 -27 q-11 -7 -34 -9 q-14 -2 -57 -3.5 q-43 -1.5 -98 -1.5 q-55 0 -113 2.5 q-58 2.5 -102 10.5 q-38 7 -68 29.5 q-30 22.5 -40 55.5 ZM185 765 q0 11 9.5 20.5 q9.5 9.5 20.5 9.5 l58 0 q11 0 20.5 -9.5 q9.5 -9.5 9.5 -20.5 l0 -139 q15 -7 31.5 -15.5 q16.5 -8.5 32 -17.5 q15.5 -9 28.5 -18.5 q13 -9.5 22 -18.5 q17 -17 19.5 -32 q2.5 -15 -6.5 -36 q-5 -9 -11 -18.5 q-6 -9.5 -15 -18.5 q-15 -14 -33 -13 q-18 1 -25 26 q-11 40 -20.5 67.5 q-9.5 27.5 -22.5 56.5 l0 -654 q0 -11 -9.5 -20.5 q-9.5 -9.5 -20.5 -9.5 l-58 0 q-11 0 -20.5 9.5 q-9.5 9.5 -9.5 20.5 l0 831 ZM50 362 q-9 15 -11 30 q-2 15 10 38 q20 38 34.5 81.5 q14.5 43.5 24.5 85.5 q2 8 9 9 q7 1 13 0 q14 -2 15 -13 q5 -33 7.5 -69 q2.5 -36 2 -71 q-0.5 -35 -6 -65.5 q-5.5 -30.5 -15.5 -51.5 q-17 -35 -47 -14 q-9 7 -19.5 18 q-10.5 11 -16.5 22 Z" /><glyph glyph-name="" unicode="&#x5feb;" d="M393 612 q0 8 5.5 14 q5.5 6 13.5 6 l118 0 l0 132 q0 11 9.5 20.5 q9.5 9.5 20.5 9.5 l60 0 q11 0 20.5 -9.5 q9.5 -9.5 9.5 -20.5 l0 -132 l106 0 q1 11 10 19 q9 8 20 8 l55 0 q11 0 20.5 -9.5 q9.5 -9.5 9.5 -20.5 l0 -293 l60 0 q8 0 14 -5.5 q6 -5.5 6 -13.5 l0 -16 q0 -8 -6 -14 q-6 -6 -14 -6 l-253 0 q30 -51 61.5 -88.5 q31.5 -37.5 65 -66 q33.5 -28.5 69 -50.5 q35.5 -22 74.5 -42 q14 -7 14 -16 q0 -9 -11 -23 q-17 -21 -32 -36 q-15 -15 -32 -30 q-18 -16 -33.5 -14 q-15.5 2 -36.5 20 q-26 22 -53 57.5 q-27 35.5 -51 80 q-24 44.5 -42.5 97.5 q-18.5 53 -27.5 111 l-10 0 q-12 -63 -34.5 -115.5 q-22.5 -52.5 -60 -98.5 q-37.5 -46 -92.5 -88 q-55 -42 -132 -83 q-5 -3 -11.5 0 q-6.5 3 -11 9 q-4.5 6 -6 12.5 q-1.5 6.5 4.5 11.5 q49 48 86.5 90.5 q37.5 42.5 64 84 q26.5 41.5 44 84.5 q17.5 43 27.5 93 l-173 0 q-8 0 -13.5 6 q-5.5 6 -5.5 14 l0 16 q0 19 19 19 l182 0 q9 78 9 182 l0 62 l-118 0 q-8 0 -13.5 6 q-5.5 6 -5.5 14 l0 12 ZM163 766 q0 11 9.5 20.5 q9.5 9.5 20.5 9.5 l53 0 q11 0 20.5 -9.5 q9.5 -9.5 9.5 -20.5 l0 -142 q15 -6 31.5 -15 q16.5 -9 32 -18.5 q15.5 -9.5 28.5 -19.5 q13 -10 22 -19 q17 -18 18 -32.5 q1 -14.5 -7 -34.5 q-5 -9 -12.5 -19.5 q-7.5 -10.5 -16.5 -18.5 q-17 -17 -33.5 -13 q-16.5 4 -20.5 24 q-6 28 -18 61.5 q-12 33.5 -24 61.5 l0 -644 q0 -11 -9.5 -20.5 q-9.5 -9.5 -20.5 -9.5 l-53 0 q-11 0 -20.5 9.5 q-9.5 9.5 -9.5 20.5 l0 829 ZM650 522 q0 -53 -2 -98.5 q-2 -45.5 -7 -87.5 l115 0 l0 244 l-106 0 l0 -58 ZM45 376 q-10 14 -10.5 31 q-0.5 17 10.5 38 q19 34 31.5 75.5 q12.5 41.5 21.5 82.5 q2 7 8 8 q6 1 12 0 q14 -2 15 -12 q4 -32 6.5 -66.5 q2.5 -34.5 2 -68 q-0.5 -33.5 -5 -63 q-4.5 -29.5 -13.5 -50.5 q-17 -34 -44 -13 q-8 6 -17 16 q-9 10 -17 22 Z" /><glyph glyph-name="" unicode="&#x6052;" d="M404 573 q0 11 9.5 20.5 q9.5 9.5 20.5 9.5 l56 0 q10 0 18.5 -7.5 q8.5 -7.5 10.5 -17.5 l248 0 q0 11 9.5 20.5 q9.5 9.5 20.5 9.5 l60 0 q11 0 20.5 -9.5 q9.5 -9.5 9.5 -20.5 l0 -462 q0 -11 -9.5 -20.5 q-9.5 -9.5 -20.5 -9.5 l-60 0 q-11 0 -20.5 9.5 q-9.5 9.5 -9.5 20.5 l0 16 l-247 0 l0 -19 q0 -11 -9.5 -20.5 q-9.5 -9.5 -20.5 -9.5 l-56 0 q-11 0 -20.5 9.5 q-9.5 9.5 -9.5 20.5 l0 460 ZM168 766 q0 11 9.5 20.5 q9.5 9.5 20.5 9.5 l50 0 q11 0 20.5 -9.5 q9.5 -9.5 9.5 -20.5 l0 -134 q28 -14 54.5 -33 q26.5 -19 40.5 -34 q15 -16 15.5 -30.5 q0.5 -14.5 -6.5 -30.5 q-4 -11 -9 -20.5 q-5 -9.5 -15 -20.5 q-14 -17 -30 -15.5 q-16 1.5 -21 27.5 q-5 23 -12.5 52.5 q-7.5 29.5 -16.5 55.5 l0 -649 q0 -11 -9.5 -20.5 q-9.5 -9.5 -20.5 -9.5 l-50 0 q-11 0 -20.5 9.5 q-9.5 9.5 -9.5 20.5 l0 832 ZM520 178 l247 0 l0 154 l-247 0 l0 -154 ZM520 378 l247 0 l0 154 l-247 0 l0 -154 ZM329 -16 q0 8 6 13.5 q6 5.5 14 5.5 l581 0 q8 0 14.5 -5.5 q6.5 -5.5 6.5 -13.5 l0 -15 q0 -8 -6.5 -13 q-6.5 -5 -14.5 -5 l-581 0 q-8 0 -14 5 q-6 5 -6 13 l0 15 ZM364 716 q0 8 6.5 13.5 q6.5 5.5 14.5 5.5 l532 0 q8 0 14.5 -5.5 q6.5 -5.5 6.5 -13.5 l0 -11 q0 -8 -6.5 -13.5 q-6.5 -5.5 -14.5 -5.5 l-532 0 q-8 0 -14.5 5.5 q-6.5 5.5 -6.5 13.5 l0 11 ZM45 369 q-8 15 -9 32.5 q-1 17.5 10 39.5 q20 39 33.5 80.5 q13.5 41.5 23.5 83.5 q2 7 9 8.5 q7 1.5 12 0.5 q14 -2 15 -13 q4 -33 6 -69 q2 -36 1 -70.5 q-1 -34.5 -6.5 -65.5 q-5.5 -31 -15.5 -52 q-9 -19 -19.5 -22 q-10.5 -3 -25.5 8 q-8 6 -18 17 q-10 11 -16 22 Z" /><glyph glyph-name="" unicode="&#x6211;" d="M54 500 q0 6 5 11.5 q5 5.5 12 5.5 l180 0 l0 127 q-48 -5 -95 -8.5 q-47 -3.5 -86 -3.5 q-4 0 -6.5 5 q-2.5 5 -4 11.5 q-1.5 6.5 -0.5 12 q1 5.5 5 6.5 q51 12 102.5 26 q51.5 14 97.5 28.5 q46 14.5 83 29.5 q37 15 60 29 q27 16 49 -6 q11 -11 21 -23 q10 -12 18 -23 q14 -18 10 -30 q-4 -12 -18 -17 q-13 -5 -44 -11 q-31 -6 -73 -12 l0 -141 l188 0 q-2 69 -2.5 131 q-0.5 62 0.5 115 q0 21 12 27.5 q12 6.5 31 6.5 l30 0 q24 0 37 -7 q13 -7 12 -27 q0 -17 -0.5 -44 q-0.5 -27 -0.5 -60 q0 -33 0.5 -69.5 q0.5 -36.5 2.5 -72.5 l251 0 q6 0 11.5 -5.5 q5.5 -5.5 5.5 -11.5 l0 -19 q0 -7 -5.5 -12 q-5.5 -5 -11.5 -5 l-248 0 q4 -60 10.5 -107 q6.5 -47 20.5 -89 q24 32 43 63.5 q19 31.5 35 63.5 q8 18 21 22.5 q13 4.5 34 -4.5 q12 -5 22.5 -10 q10.5 -5 24.5 -13 q18 -11 21 -22.5 q3 -11.5 -8 -29.5 q-25 -41 -58 -84 q-33 -43 -79 -87 q29 -36 71.5 -72 q42.5 -36 104.5 -77 q11 -8 11 -16.5 q0 -8.5 -8 -19.5 q-14 -20 -29 -35.5 q-15 -15.5 -35 -33.5 q-14 -11 -29.5 -9 q-15.5 2 -31.5 14 q-52 38 -92 78.5 q-40 40.5 -69 86.5 q-50 -33 -111 -62.5 q-61 -29.5 -136 -53.5 q-5 -2 -10 2 q-5 4 -8.5 10.5 q-3.5 6.5 -4 13 q-0.5 6.5 4.5 9.5 q132 77 221 162 q-27 62 -40.5 135.5 q-13.5 73.5 -18.5 164.5 l-190 0 l0 -146 l133 19 q6 1 10 -4 q4 -5 6 -11.5 q2 -6.5 1 -13 q-1 -6.5 -6 -8.5 q-20 -8 -58 -22 q-38 -14 -86 -31 l0 -206 q0 -57 -16.5 -85 q-16.5 -28 -49.5 -39 q-16 -5 -37 -8.5 q-21 -3.5 -38 -4.5 q-22 -2 -29.5 2.5 q-7.5 4.5 -15.5 17.5 q-18 34 -31 62 q-5 10 -2 18 q3 8 17 10 l43 7 q22 5 31 15 q9 10 9 40 l0 131 q-39 -13 -74.5 -23.5 q-35.5 -10.5 -61.5 -17.5 q-20 -5 -31 -2.5 q-11 2.5 -19 19.5 q-4 10 -8 26 q-4 16 -8 28 q-11 36 31 41 l171 24 l0 162 l-180 0 q-7 0 -12 5 q-5 5 -5 12 l0 19 ZM711 715 q-3 3 -1.5 8 q1.5 5 5 9 q3.5 4 8.5 6.5 q5 2.5 9 1.5 q42 -12 78.5 -31.5 q36.5 -19.5 59.5 -39.5 q16 -13 18 -29 q2 -16 -6 -35 q-6 -14 -14 -27 q-8 -13 -19 -23 q-14 -11 -30.5 -8.5 q-16.5 2.5 -27.5 27.5 q-17 39 -36.5 74 q-19.5 35 -43.5 67 Z" /><glyph glyph-name="" unicode="&#x6218;" d="M412 497 q-1 8 4.5 14 q5.5 6 13.5 7 l150 18 l-3 85 l-4 148 q-1 11 8 20.5 q9 9.5 20 9.5 l62 0 q11 0 20 -9.5 q9 -9.5 9 -20.5 q0 -33 1 -73.5 q1 -40.5 3 -75.5 l3 -69 l223 27 q8 1 14 -4.5 q6 -5.5 7 -13.5 l2 -19 q1 -8 -4 -14 q-5 -6 -13 -7 l-225 -28 q4 -59 10 -108 q6 -49 17 -91 q21 35 37 70 q16 35 30 70 q8 20 23 22.5 q15 2.5 35 -5.5 q14 -5 23.5 -9.5 q9.5 -4.5 21.5 -11.5 q22 -12 25.5 -24 q3.5 -12 -8.5 -34 q-31 -55 -63 -104 q-32 -49 -69 -94 q26 -37 65 -71.5 q39 -34.5 96 -69.5 q14 -8 15.5 -16.5 q1.5 -8.5 -5.5 -20.5 q-10 -18 -25.5 -38 q-15.5 -20 -30.5 -37 q-10 -11 -22 -15 q-12 -4 -24 4 q-56 38 -96.5 79.5 q-40.5 41.5 -69.5 86.5 q-59 -50 -132 -91 q-73 -41 -167 -75 q-6 -2 -11.5 0.5 q-5.5 2.5 -9.5 7.5 q-5 7 -6 15 q-1 8 4 11 q20 13 38 25.5 q18 12.5 35 25.5 l-56 0 q-10 0 -18 6.5 q-8 6.5 -11 15.5 l-160 0 l0 -63 q0 -11 -9.5 -20.5 q-9.5 -9.5 -20.5 -9.5 l-56 0 q-11 0 -20.5 9.5 q-9.5 9.5 -9.5 20.5 l0 402 q0 11 9.5 20.5 q9.5 9.5 20.5 9.5 l56 0 q8 0 15.5 -5 q7.5 -5 11.5 -13 l15 0 l0 397 q0 11 9.5 20.5 q9.5 9.5 20.5 9.5 l59 0 q11 0 20.5 -9.5 q9.5 -9.5 9.5 -20.5 l0 -131 l153 0 q6 0 11.5 -5.5 q5.5 -5.5 5.5 -11.5 l0 -17 q0 -7 -5.5 -12 q-5.5 -5 -11.5 -5 l-153 0 l0 -215 l28 0 q0 11 9.5 20 q9.5 9 20.5 9 l58 0 q11 0 20.5 -9.5 q9.5 -9.5 9.5 -20.5 l0 -342 q0 -5 -1 -8 q52 40 93.5 78 q41.5 38 75.5 76 q-29 71 -40.5 147.5 q-11.5 76.5 -16.5 160.5 l-146 -18 q-8 -1 -14.5 4 q-6.5 5 -7.5 13 l-2 20 ZM194 64 l159 0 l0 255 l-159 0 l0 -255 ZM730 730 q-7 9 2 20 q7 11 16 9 q11 -2 29.5 -8 q18.5 -6 37.5 -14 q19 -8 36 -17 q17 -9 26 -16 q13 -12 16.5 -25 q3.5 -13 -2.5 -31 q-3 -8 -10 -22 q-7 -14 -17 -25 q-14 -14 -31.5 -13.5 q-17.5 0.5 -30.5 26.5 q-14 29 -30.5 56.5 q-16.5 27.5 -41.5 59.5 Z" /><glyph glyph-name="" unicode="&#x6309;" d="M404 192 q20 41 38.5 84.5 q18.5 43.5 34.5 88.5 l-115 0 q-8 0 -16 6 q-8 6 -8 14 l0 16 q0 8 8 13.5 q8 5.5 16 5.5 l134 0 q13 38 23 74.5 q10 36.5 18 68.5 q5 20 16 25 q11 5 30 0 q12 -3 30 -9.5 q18 -6.5 29 -12.5 q15 -8 18.5 -19.5 q3.5 -11.5 -6.5 -34.5 q-9 -21 -19.5 -44.5 q-10.5 -23.5 -23.5 -47.5 l314 0 q8 0 15 -5.5 q7 -5.5 7 -13.5 l0 -16 q0 -8 -7 -14 q-7 -6 -15 -6 l-76 0 q-23 -73 -52 -131 q-29 -58 -66 -106 q58 -22 98.5 -39.5 q40.5 -17.5 59.5 -27.5 q44 -23 45 -61 q1 -16 -1 -31.5 q-2 -15.5 -4 -26.5 q-5 -24 -21.5 -32.5 q-16.5 -8.5 -41.5 10.5 q-50 38 -100 72.5 q-50 34.5 -101 67.5 q-65 -54 -154.5 -92.5 q-89.5 -38.5 -216.5 -67.5 q-4 -1 -8 4 q-4 5 -6 11.5 q-2 6.5 -1 13 q1 6.5 7 8.5 q99 41 169 83.5 q70 42.5 121 93.5 q-29 17 -58 32 q-29 15 -58 30 l-16 -18 q-6 -7 -13 -8 q-7 -1 -18 7 q-19 14 -9 35 ZM54 593 q0 8 6.5 13.5 q6.5 5.5 14.5 5.5 l71 0 l0 146 q0 15 7.5 25.5 q7.5 10.5 28.5 10.5 l46 0 q20 0 27 -11 q7 -11 7 -25 l0 -146 l64 0 q8 0 14.5 -5.5 q6.5 -5.5 6.5 -13.5 l0 -18 q0 -8 -6.5 -13 q-6.5 -5 -14.5 -5 l-64 0 l0 -189 l61 13 q5 1 10 -3.5 q5 -4.5 8 -11 q3 -6.5 2.5 -12.5 q-0.5 -6 -4.5 -9 l-77 -46 l0 -271 q0 -51 -13.5 -75.5 q-13.5 -24.5 -44.5 -35.5 q-14 -5 -29.5 -7.5 q-15.5 -2.5 -31.5 -4.5 q-19 -2 -28 1 q-9 3 -16 17 q-9 18 -15 32.5 q-6 14.5 -12 28.5 q-3 9 -0.5 16.5 q2.5 7.5 15.5 9.5 l28 5 q20 4 25.5 13.5 q5.5 9.5 5.5 37.5 l0 172 l-39 -18 q-17 -8 -29 -7 q-12 1 -22 20 q-3 5 -8 20 q-5 15 -10 29 q-10 38 28 46 l80 16 l0 213 l-71 0 q-8 0 -14.5 5 q-6.5 5 -6.5 13 l0 18 ZM777 539 q10 24 17.5 44.5 q7.5 20.5 13.5 40.5 l-340 0 q-3 -30 -10.5 -54.5 q-7.5 -24.5 -18.5 -39.5 q-25 -34 -51 -7 q-11 11 -19.5 23.5 q-8.5 12.5 -14.5 26.5 q-8 17 -5.5 29.5 q2.5 12.5 18.5 26.5 q23 22 37.5 45 q14.5 23 27.5 51 q2 4 7 5.5 q5 1.5 10.5 0.5 q5.5 -1 10.5 -4 q5 -3 6 -7 q2 -11 3 -22 q1 -11 1 -22 l148 0 q-1 2 -2 4.5 q-1 2.5 -2 5.5 q-8 22 -21.5 45 q-13.5 23 -27.5 45 q-4 7 4.5 16.5 q8.5 9.5 16.5 8.5 q33 -5 64 -16.5 q31 -11.5 50 -25.5 q17 -12 18.5 -23.5 q1.5 -11.5 -9.5 -29.5 q-5 -8 -12 -16 q-7 -8 -15 -14 l141 0 l3 10 q6 23 19 24.5 q13 1.5 33 -6.5 q16 -7 27 -12.5 q11 -5.5 26 -16.5 q17 -13 15.5 -26 q-1.5 -13 -12.5 -25 q-11 -12 -26.5 -27 q-15.5 -15 -33 -31 q-17.5 -16 -36.5 -29.5 q-19 -13.5 -35 -22.5 q-4 -2 -9.5 -0.5 q-5.5 1.5 -10 5 q-4.5 3.5 -6.5 9 q-2 5.5 0 11.5 ZM583 365 q-44 -82 -98 -156 q36 -11 70 -21 q34 -10 66 -21 q32 42 54.5 91 q22.5 49 39.5 107 l-132 0 Z" /><glyph glyph-name="" unicode="&#x6311;" d="M307 227 q-16 30 14 46 l157 104 q0 12 0.5 24 q0.5 12 0.5 25 l0 69 q-3 -10 -7 -16 q-6 -10 -14.5 -20 q-8.5 -10 -19.5 -18 q-19 -14 -32.5 -8 q-13.5 6 -18.5 30 q-3 16 -11 44 q-8 28 -17 57 q-5 -5 -13 -5 l-79 0 l0 -176 l78 15 q10 2 14.5 -1 q4.5 -3 7.5 -11 q8 -16 -7 -26 q-16 -10 -40 -23.5 q-24 -13.5 -53 -28.5 l0 -260 q0 -54 -10.5 -81.5 q-10.5 -27.5 -38.5 -43.5 q-14 -8 -36.5 -13.5 q-22.5 -5.5 -39.5 -7.5 q-10 -1 -16 -1 q-6 0 -10 2 q-4 2 -7.5 6 q-3.5 4 -7.5 11 q-9 14 -19 33.5 q-10 19.5 -18 36.5 q-5 9 -3 17 q2 8 14 10 l37 7 q20 5 28 15 q8 10 8 40 l0 167 l-47 -21 q-16 -6 -25.5 -3 q-9.5 3 -17.5 20 q-2 3 -4.5 10 q-2.5 7 -5.5 16 q-3 9 -6 18 q-3 9 -4 15 q-4 20 0.5 30 q4.5 10 23.5 13 l86 16 l0 199 l-77 0 q-8 0 -14.5 5.5 q-6.5 5.5 -6.5 13.5 l0 18 q0 8 6.5 13 q6.5 5 14.5 5 l77 0 l0 148 q0 16 8.5 24 q8.5 8 30.5 8 l41 0 q20 0 29.5 -9 q9.5 -9 9.5 -23 l0 -148 l75 0 q-5 13 -9 20 q-3 5 0 10 q3 5 8 8 q5 3 10 4 q5 1 8 -1 q35 -27 66 -58.5 q31 -31.5 45 -57.5 q6 -14 9 -24 l0 249 q0 11 9.5 20.5 q9.5 9.5 21.5 9.5 l51 0 q12 0 21.5 -9.5 q9.5 -9.5 9.5 -20.5 l0 -339 q0 -110 -18 -189 q-18 -79 -55 -139 q-37 -60 -92 -105.5 q-55 -45.5 -130 -88.5 q-5 -3 -11 0 q-6 3 -9.5 8.5 q-3.5 5.5 -4 12 q-0.5 6.5 5.5 11.5 q45 48 78.5 90.5 q33.5 42.5 57 85 q23.5 42.5 37.5 89 q14 46.5 21 102.5 q-22 -36 -43 -67 q-21 -31 -41 -56 q-11 -12 -23.5 -12 q-12.5 0 -23.5 12 q-6 7 -16.5 22 q-10.5 15 -17.5 26 ZM649 761 q0 14 7.5 22.5 q7.5 8.5 24.5 10.5 l48 0 q16 1 25 -8.5 q9 -9.5 9 -23.5 l0 -258 q18 37 35 75 q17 38 25 64 q11 34 46 17 q18 -9 30.5 -17 q12.5 -8 21.5 -14 q14 -9 14.5 -18.5 q0.5 -9.5 -7.5 -20.5 q-9 -12 -25 -30.5 q-16 -18.5 -37.5 -39.5 q-21.5 -21 -47.5 -42.5 q-26 -21.5 -55 -39.5 l0 -52 q48 -20 88 -39.5 q40 -19.5 60 -34.5 q17 -12 22 -25 q5 -13 0 -35 q-2 -12 -6.5 -24 q-4.5 -12 -14.5 -27 q-14 -22 -33 -21.5 q-19 0.5 -30 22.5 q-16 32 -38.5 68.5 q-22.5 36.5 -47.5 69.5 l0 -207 q0 -27 1.5 -44 q1.5 -17 8.5 -27 q7 -10 22.5 -13.5 q15.5 -3.5 42.5 -4.5 q40 -1 69.5 -0.5 q29.5 0.5 41.5 1.5 q25 1 16 -27 q-5 -17 -12 -33 q-7 -16 -12 -28 q-6 -14 -15 -19 q-9 -5 -28 -6 q-23 -2 -48 -2.5 q-25 -0.5 -67 1.5 q-36 1 -61 9.5 q-25 8.5 -41.5 27 q-16.5 18.5 -24 49.5 q-7.5 31 -7.5 78 l0 666 Z" /><glyph glyph-name="" unicode="&#x662f;" d="M215 739 q0 37 36 37 l48 0 q35 0 38 -32 l344 0 q1 34 36 34 l50 0 q37 0 37 -37 l0 -302 q0 -39 -37 -39 l-50 0 q-28 0 -34 22 l-347 0 q-6 -27 -37 -27 l-48 0 q-36 0 -36 38 l0 306 ZM54 -75 q37 42 61.5 74.5 q24.5 32.5 41.5 66 q17 33.5 28 72.5 q11 39 20 95 q2 11 10.5 18.5 q8.5 7.5 25.5 5.5 q23 -4 38 -7 q15 -3 30 -7 q17 -5 20.5 -17.5 q3.5 -12.5 -0.5 -26.5 q-5 -17 -9.5 -32.5 q-4.5 -15.5 -10.5 -30.5 q35 -35 69 -57 q34 -22 79 -32 l0 244 l-380 0 q-8 0 -14.5 4 q-6.5 4 -6.5 12 l0 19 q0 8 6.5 12 q6.5 4 14.5 4 l847 0 q8 0 14.5 -4 q6.5 -4 6.5 -12 l0 -19 q0 -8 -6.5 -12 q-6.5 -4 -14.5 -4 l-342 0 l0 -101 l277 0 q8 0 12.5 -5 q4.5 -5 4.5 -13 l0 -17 q0 -17 -17 -17 l-277 0 l0 -103 q46 -1 101 -1 q55 0 106.5 0.5 q51.5 0.5 93.5 1.5 q42 1 63 2 q10 1 15.5 -2.5 q5.5 -3.5 3.5 -14.5 q-8 -25 -13.5 -38.5 q-5.5 -13.5 -13.5 -27.5 q-8 -15 -16.5 -20.5 q-8.5 -5.5 -23.5 -6.5 q-15 -1 -47.5 -1.5 q-32.5 -0.5 -74.5 0 q-42 0.5 -88.5 1.5 q-46.5 1 -89.5 3.5 q-43 2.5 -77 5.5 q-34 3 -51 7 q-68 17 -109 53 q-41 36 -72 93 q-31 -59 -81 -105.5 q-50 -46.5 -128 -82.5 q-6 -3 -12 -1 q-6 2 -9.5 6.5 q-3.5 4.5 -5 9.5 q-1.5 5 0.5 8 ZM337 470 l344 0 l0 89 l-344 0 l0 -89 ZM337 607 l344 0 l0 89 l-344 0 l0 -89 Z" /><glyph glyph-name="" unicode="&#x6700;" d="M52 9 q-6 30 25 35 l64 6 l0 329 l-69 0 q-7 0 -12 5 q-5 5 -5 12 l0 16 q0 6 5 11.5 q5 5.5 12 5.5 l858 0 q6 0 11.5 -5.5 q5.5 -5.5 5.5 -11.5 l0 -16 q0 -7 -5.5 -12 q-5.5 -5 -11.5 -5 l-436 0 l0 -295 l39 4 q6 1 11 -4.5 q5 -5.5 6.5 -12 q1.5 -6.5 0 -13 q-1.5 -6.5 -7.5 -8.5 l-49 -15 l0 -99 q0 2 2 2 q39 32 74 63.5 q35 31.5 66 69.5 q-28 38 -46.5 85 q-18.5 47 -31.5 107 l-19 0 q-7 0 -12 5 q-5 5 -5 12 l0 12 q0 6 5 11.5 q5 5.5 12 5.5 l220 0 q1 4 2 7.5 q1 3.5 3 8.5 q3 11 14 17 q11 6 22 3 l61 -19 q11 -3 16.5 -14 q5.5 -11 1.5 -21 q-24 -63 -52.5 -113 q-28.5 -50 -60.5 -90 q35 -17 77.5 -31 q42.5 -14 95.5 -25 q11 -2 13.5 -9.5 q2.5 -7.5 -2.5 -17.5 q-3 -5 -10 -15 q-7 -10 -16 -21.5 q-9 -11.5 -17.5 -22.5 q-8.5 -11 -13.5 -16 q-20 -19 -44 -10 q-51 20 -89.5 42.5 q-38.5 22.5 -69.5 48.5 q-39 -32 -84 -57 q-45 -25 -96 -46 q-7 -2 -12.5 2.5 q-5.5 4.5 -7.5 12.5 q-10 -17 -26 -17 l-58 0 q-11 0 -20.5 9.5 q-9.5 9.5 -9.5 20.5 l0 69 q-66 -16 -137.5 -32 q-71.5 -16 -134.5 -29 q-12 -2 -22.5 -0.5 q-10.5 1.5 -16.5 16.5 q-5 13 -7.5 24.5 q-2.5 11.5 -5.5 24.5 ZM178 744 q0 11 9.5 20.5 q9.5 9.5 20.5 9.5 l60 0 q8 0 16 -6 q8 -6 12 -14 l405 0 q2 9 10.5 16 q8.5 7 18.5 7 l60 0 q11 0 20.5 -9.5 q9.5 -9.5 9.5 -20.5 l0 -245 q0 -11 -9.5 -20.5 q-9.5 -9.5 -20.5 -9.5 l-60 0 q-9 0 -17 6 q-8 6 -11 14 l-405 0 q-3 -9 -11.5 -15.5 q-8.5 -6.5 -17.5 -6.5 l-60 0 q-11 0 -20.5 9.5 q-9.5 9.5 -9.5 20.5 l0 244 ZM298 538 l402 0 l0 62 l-402 0 l0 -62 ZM298 646 l402 0 l0 62 l-402 0 l0 -62 ZM586 263 q20 -37 44 -67 q24 -30 54 -56 q16 27 30.5 57.5 q14.5 30.5 28.5 65.5 l-157 0 ZM257 183 l119 0 l0 76 l-119 0 l0 -76 ZM257 303 l119 0 l0 76 l-119 0 l0 -76 ZM257 61 l119 11 l0 67 l-119 0 l0 -78 Z" /><glyph glyph-name="" unicode="&#x6765;" d="M39 -5 q96 73 168.5 146.5 q72.5 73.5 129.5 162.5 l-264 0 q-7 0 -12 5 q-5 5 -5 12 l0 19 q0 6 5 11.5 q5 5.5 12 5.5 l365 0 l0 255 l-317 0 q-7 0 -12 5 q-5 5 -5 12 l0 19 q0 6 5 11.5 q5 5.5 12 5.5 l317 0 l0 100 q0 11 9.5 20.5 q9.5 9.5 20.5 9.5 l64 0 q11 0 20.5 -9.5 q9.5 -9.5 9.5 -20.5 l0 -100 l326 0 q6 0 11.5 -5.5 q5.5 -5.5 5.5 -11.5 l0 -19 q0 -7 -5.5 -12 q-5.5 -5 -11.5 -5 l-326 0 l0 -255 l55 0 q21 41 43 94.5 q22 53.5 40 112.5 q4 14 16 18.5 q12 4.5 26 -1.5 q19 -7 34 -14 q15 -7 28 -15 q16 -9 18 -21.5 q2 -12.5 -6 -24.5 q-9 -14 -24.5 -32.5 q-15.5 -18.5 -34.5 -39 q-19 -20.5 -39.5 -41 q-20.5 -20.5 -40.5 -36.5 l249 0 q6 0 11.5 -5.5 q5.5 -5.5 5.5 -11.5 l0 -19 q0 -7 -5.5 -12 q-5.5 -5 -11.5 -5 l-322 0 q36 -37 73 -66 q37 -29 78.5 -53 q41.5 -24 88.5 -43.5 q47 -19.5 103 -36.5 q14 -3 15.5 -12 q1.5 -9 -5.5 -20 q-6 -9 -14 -20 q-8 -11 -16.5 -22.5 q-8.5 -11.5 -17 -21.5 q-8.5 -10 -15.5 -17 q-14 -13 -24 -14 q-10 -1 -20 3 q-53 24 -95 55 q-42 31 -76 70.5 q-34 39.5 -61.5 88.5 q-27.5 49 -50.5 109 l-5 0 l0 -370 q0 -11 -9.5 -20.5 q-9.5 -9.5 -20.5 -9.5 l-64 0 q-11 0 -20.5 9.5 q-9.5 9.5 -9.5 20.5 l0 297 q-76 -85 -171 -153 q-95 -68 -212 -118 q-5 -2 -10 2 q-5 4 -8 10 q-3 6 -3 12.5 q0 6.5 5 10.5 ZM181 561 q-3 4 -0.5 9 q2.5 5 7 9 q4.5 4 10 6 q5.5 2 10.5 0 q57 -26 91.5 -48.5 q34.5 -22.5 54.5 -45.5 q11 -12 12 -26.5 q1 -14.5 -8 -34.5 q-12 -30 -33 -48 q-12 -12 -31 -11 q-19 1 -28 24 q-8 21 -16.5 39.5 q-8.5 18.5 -18 37.5 q-9.5 19 -22 40.5 q-12.5 21.5 -28.5 48.5 Z" /><glyph glyph-name="" unicode="&#x6b21;" d="M231 -68 q83 64 139.5 121 q56.5 57 91 115.5 q34.5 58.5 49.5 121 q15 62.5 16 136.5 l1 66 q0 11 9.5 20.5 q9.5 9.5 20.5 9.5 l67 0 q11 0 20.5 -9.5 q9.5 -9.5 9.5 -20.5 q1 -23 0.5 -43.5 q-0.5 -20.5 -1.5 -40.5 q35 -121 112 -207 q77 -86 188 -152 q20 -12 3 -32 q-10 -11 -22 -23.5 q-12 -12.5 -24.5 -23.5 q-12.5 -11 -23.5 -20 q-11 -9 -18 -14 q-11 -8 -23 -8.5 q-12 -0.5 -26 13.5 q-61 56 -109 139 q-48 83 -72 206 q-16 -71 -47.5 -127.5 q-31.5 -56.5 -80 -103 q-48.5 -46.5 -114.5 -85 q-66 -38.5 -150 -73.5 q-5 -2 -10 2 q-5 4 -8 10 q-3 6 -3 12.5 q0 6.5 5 10.5 ZM708 410 q25 54 44 99 q19 45 35 88 l-259 0 q-42 -89 -94.5 -153.5 q-52.5 -64.5 -105.5 -99.5 q-4 -4 -10 -2.5 q-6 1.5 -11 6 q-5 4.5 -7.5 11 q-2.5 6.5 1.5 12.5 q115 205 151 405 q2 11 12.5 18 q10.5 7 21.5 5 l80 -16 q11 -2 17 -12.5 q6 -10.5 3 -21.5 q-8 -27 -16.5 -52.5 q-8.5 -25.5 -18.5 -49.5 l252 0 q1 1 1 2 q0 1 1 3 q6 21 22 25 q16 4 28 -1 q20 -9 36.5 -17 q16.5 -8 30.5 -19 q16 -11 16 -24 q0 -13 -10 -28 q-18 -27 -42.5 -57.5 q-24.5 -30.5 -50.5 -58 q-26 -27.5 -51 -50.5 q-25 -23 -44 -36 q-5 -3 -11.5 -1.5 q-6.5 1.5 -11.5 6 q-5 4.5 -8 9.5 q-3 5 -1 10 ZM54 196 q-4 8 -2 13.5 q2 5.5 8 11.5 q13 13 27 2 q8 -5 18.5 -13 q10.5 -8 22.5 -19 l133 320 q1 3 7.5 4 q6.5 1 13 -0.5 q6.5 -1.5 12 -5 q5.5 -3.5 4.5 -8.5 l-87 -388 q10 -10 17.5 -19 q7.5 -9 12.5 -17 q14 -20 17 -36.5 q3 -16.5 -8 -37.5 q-5 -11 -16 -26.5 q-11 -15.5 -28 -26.5 q-23 -16 -40 -13 q-17 3 -28 37 q-14 46 -37 105 q-23 59 -47 117 ZM77 720 q-3 4 -0.5 9.5 q2.5 5.5 7 10.5 q4.5 5 11 7.5 q6.5 2.5 12.5 0.5 q46 -14 83 -34 q37 -20 57 -37 q17 -15 21 -30.5 q4 -15.5 -7 -39.5 q-5 -11 -13 -24.5 q-8 -13.5 -19 -25.5 q-18 -20 -39.5 -19.5 q-21.5 0.5 -33.5 30.5 q-13 32 -32.5 70 q-19.5 38 -46.5 82 Z" /><glyph glyph-name="" unicode="&#x6bb5;" d="M124 687 q0 11 9.5 20.5 q9.5 9.5 20.5 9.5 l56 0 q8 0 15.5 -5.5 q7.5 -5.5 11.5 -13.5 q35 17 63.5 35 q28.5 18 61.5 46 q11 9 24 9 q13 0 24 -9 q14 -11 25 -21 q11 -10 19 -19 q12 -14 9 -26 q-3 -12 -17 -18 q-9 -4 -32 -10 q-23 -6 -52.5 -12 q-29.5 -6 -61.5 -11.5 q-32 -5.5 -60 -8.5 l0 -116 l180 0 q6 0 11.5 -5.5 q5.5 -5.5 5.5 -11.5 l0 -16 q0 -7 -5.5 -12 q-5.5 -5 -11.5 -5 l-180 0 l0 -133 l180 0 q6 0 11.5 -5.5 q5.5 -5.5 5.5 -11.5 l0 -16 q0 -7 -5.5 -12 q-5.5 -5 -11.5 -5 l-180 0 l0 -141 l185 26 q12 2 15.5 -1 q3.5 -3 6.5 -10 q8 -22 -11 -29 q-48 -20 -95 -37.5 q-47 -17.5 -101 -36.5 l0 -144 q0 -11 -9.5 -20.5 q-9.5 -9.5 -20.5 -9.5 l-56 0 q-11 0 -20.5 9.5 q-9.5 9.5 -9.5 20.5 l0 105 l-26 -8 q-32 -11 -42 13 q-6 17 -9.5 31.5 q-3.5 14.5 -5.5 32.5 q-4 28 29 34 l54 7 l0 541 ZM355 -65 q70 40 131.5 80.5 q61.5 40.5 113.5 91.5 q-32 46 -56 104.5 q-24 58.5 -41 135.5 l-30 0 q-7 0 -12 5 q-5 5 -5 12 l0 14 q0 6 5 11.5 q5 5.5 12 5.5 l299 0 q1 4 2 7.5 q1 3.5 3 8.5 q4 11 15.5 16.5 q11.5 5.5 22.5 2.5 l73 -28 q11 -4 16 -15 q5 -11 0 -21 q-33 -77 -70.5 -138 q-37.5 -61 -83.5 -111 q44 -26 94.5 -46 q50.5 -20 110.5 -37 q11 -3 11.5 -12.5 q0.5 -9.5 -5.5 -17.5 q-11 -16 -26 -34 q-15 -18 -35 -40 q-14 -12 -26.5 -13 q-12.5 -1 -28.5 5 q-55 24 -100.5 52 q-45.5 28 -83.5 63 q-60 -44 -131.5 -77.5 q-71.5 -33.5 -161.5 -60.5 q-5 -2 -9.5 2.5 q-4.5 4.5 -7 11 q-2.5 6.5 -2 13 q0.5 6.5 5.5 9.5 ZM407 433 q37 41 57.5 72 q20.5 31 30.5 64 q10 33 12 73.5 q2 40.5 1 99.5 q0 30 39 30 l34 0 q15 0 24.5 -7.5 q9.5 -7.5 11.5 -19.5 l112 0 q1 12 9.5 20.5 q8.5 8.5 25.5 8.5 l37 0 q38 0 38 -34 l0 -122 q0 -17 1 -26.5 q1 -9.5 5 -15 q4 -5.5 12 -7 q8 -1.5 23 -2.5 l57 0 q16 1 19.5 -4.5 q3.5 -5.5 0.5 -18.5 q-2 -11 -7 -28 q-5 -17 -11 -30 q-7 -14 -16 -18.5 q-9 -4.5 -27 -5.5 q-18 -1 -40.5 -1 q-22.5 0 -34.5 1 q-23 2 -40.5 8.5 q-17.5 6.5 -29 20 q-11.5 13.5 -17 35.5 q-5.5 22 -5.5 55 l0 116 l-112 0 q0 -47 -5.5 -87 q-5.5 -40 -24.5 -75 q-19 -35 -56.5 -67 q-37.5 -32 -101.5 -62 q-5 -2 -10 0.5 q-5 2.5 -9 7 q-4 4.5 -5 10 q-1 5.5 2 9.5 ZM664 179 q55 71 92 168 l-224 0 q30 -52 63 -93.5 q33 -41.5 69 -74.5 Z" /><glyph glyph-name="" unicode="&#x6bd5;" d="M524 761 q0 14 8.5 24 q8.5 10 26.5 9 l48 0 q18 0 27 -10 q9 -10 9 -24 l0 -151 q27 17 49 32.5 q22 15.5 41.5 31.5 q19.5 16 37.5 33.5 q18 17.5 38 38.5 q12 12 25.5 11 q13.5 -1 25.5 -10 q12 -8 26 -21 q14 -13 23 -24 q9 -11 5.5 -25 q-3.5 -14 -17.5 -22 q-62 -36 -129 -57.5 q-67 -21.5 -125 -35.5 l0 -82 q0 -15 2 -25.5 q2 -10.5 8 -17 q6 -6.5 18 -9.5 q12 -3 32 -4 q56 -2 113.5 -0.5 q57.5 1.5 107.5 3.5 q17 2 19 -6.5 q2 -8.5 -2 -19.5 q-2 -6 -7 -21 q-5 -15 -16 -35 q-8 -17 -18.5 -22.5 q-10.5 -5.5 -30.5 -7.5 q-14 -1 -36.5 -2 q-22.5 -1 -50 -1.5 q-27.5 -0.5 -56.5 0 q-29 0.5 -55 2.5 q-36 2 -63.5 9.5 q-27.5 7.5 -46 24 q-18.5 16.5 -28 44 q-9.5 27.5 -9.5 70.5 l0 300 ZM431 278 q0 18 13 27 q13 9 31 9 l41 0 q19 0 32 -9 q13 -9 13 -27 l0 -94 l364 0 q8 0 14 -6 q6 -6 6 -14 l0 -17 q0 -8 -6 -14 q-6 -6 -14 -6 l-364 0 l0 -189 q0 -18 -13 -28 q-13 -10 -32 -10 l-41 0 q-18 0 -31 10 q-13 10 -13 28 l0 189 l-357 0 q-8 0 -14 6 q-6 6 -6 14 l0 17 q0 8 6 14 q6 6 14 6 l357 0 l0 94 ZM125 347 q-8 20 1.5 32.5 q9.5 12.5 30.5 17.5 l2 0 l0 362 q0 14 9.5 25 q9.5 11 26.5 11 l46 0 q17 0 27 -11 q10 -11 10 -25 l0 -101 l185 0 q8 0 13.5 -6 q5.5 -6 5.5 -14 l0 -12 q0 -8 -5.5 -14 q-5.5 -6 -13.5 -6 l-185 0 l0 -179 l172 44 q5 1 10.5 -3.5 q5.5 -4.5 8.5 -11 q3 -6.5 3 -13 q0 -6.5 -4 -9.5 q-28 -21 -62 -43 q-34 -22 -69 -42.5 q-35 -20.5 -69 -39 q-34 -18.5 -63 -33.5 q-35 -18 -52 15 q-7 11 -13 22.5 q-6 11.5 -15 33.5 Z" /><glyph glyph-name="" unicode="&#x6c38;" d="M162 579 q0 6 5 11.5 q5 5.5 12 5.5 l261 0 l0 1 q0 16 10.5 25 q10.5 9 34.5 8 l39 0 q23 -1 32 -10 q9 -9 9 -23 l0 -65 q18 -40 37 -75.5 q19 -35.5 42 -67.5 q48 54 82.5 102.5 q34.5 48.5 57.5 90.5 q6 11 19 13.5 q13 2.5 26 -3.5 q12 -7 31.5 -20 q19.5 -13 28.5 -22 q11 -11 10.5 -21 q-0.5 -10 -8.5 -21 q-43 -48 -99.5 -89 q-56.5 -41 -119.5 -70 q54 -69 122.5 -125.5 q68.5 -56.5 159.5 -110.5 q12 -8 12 -14.5 q0 -6.5 -10 -19.5 q-12 -16 -29 -33 q-17 -17 -43 -37 q-27 -20 -52 1 q-88 72 -154.5 174 q-66.5 102 -112.5 242 l0 -375 q0 -31 -5 -52.5 q-5 -21.5 -14 -36 q-9 -14.5 -22 -24.5 q-13 -10 -29 -17 q-16 -7 -42.5 -13.5 q-26.5 -6.5 -46.5 -8.5 q-21 -2 -30.5 2 q-9.5 4 -20.5 20 q-11 15 -23 34.5 q-12 19.5 -17 31.5 q-5 9 -2 15.5 q3 6.5 14 8.5 q20 3 38.5 6.5 q18.5 3.5 30.5 5.5 q22 6 33 17 q11 11 11 42 l0 466 l-261 0 q-7 0 -12 5 q-5 5 -5 12 l0 14 ZM63 396 q0 6 5 11.5 q5 5.5 12 5.5 l206 0 l8 29 q2 11 11 17.5 q9 6.5 25 3.5 q14 -3 32 -9.5 q18 -6.5 28 -10.5 q18 -8 21 -17.5 q3 -9.5 0 -20.5 q-29 -90 -67.5 -160 q-38.5 -70 -84 -123 q-45.5 -53 -97 -92.5 q-51.5 -39.5 -108.5 -67.5 q-5 -2 -10 0 q-5 2 -8.5 6.5 q-3.5 4.5 -3.5 10.5 q0 6 5 11 q33 38 65.5 78.5 q32.5 40.5 62.5 86 q30 45.5 56.5 97.5 q26.5 52 48.5 113 l-190 0 q-7 0 -12 5 q-5 5 -5 12 l0 14 ZM333 773 q-3 2 -3.5 7 q-0.5 5 1 10.5 q1.5 5.5 5 9.5 q3.5 4 8.5 3 q38 -3 76 -7.5 q38 -4.5 70.5 -10.5 q32.5 -6 58.5 -12.5 q26 -6.5 40 -13.5 q17 -9 22.5 -19 q5.5 -10 5.5 -31 q0 -13 -2.5 -31.5 q-2.5 -18.5 -6.5 -27.5 q-8 -18 -24 -21 q-16 -3 -33 10 q-37 27 -94.5 63 q-57.5 36 -123.5 71 Z" /><glyph glyph-name="" unicode="&#x6d41;" d="M325 437 q-8 36 34 36 l6 0 q12 15 26.5 33.5 q14.5 18.5 28 39 q13.5 20.5 26.5 42 q13 21.5 22 42.5 l-151 0 q-8 0 -14 6 q-6 6 -6 14 l0 17 q0 8 6 14 q6 6 14 6 l256 0 q-14 22 -30.5 43 q-16.5 21 -40.5 47 q-2 2 -0.5 6.5 q1.5 4.5 4.5 8.5 q3 4 7.5 7 q4.5 3 9.5 2 q42 -7 78 -17 q36 -10 58 -22 q20 -11 21 -24 q1 -13 -8 -25 q-11 -16 -24 -26 l275 0 q9 0 15 -6 q6 -6 6 -14 l0 -17 q0 -8 -6 -14 q-6 -6 -15 -6 l-307 0 q-39 -44 -79.5 -83.5 q-40.5 -39.5 -82.5 -72.5 l282 5 q-17 23 -34 44.5 q-17 21.5 -33 41.5 q-3 4 -2 9.5 q1 5.5 4.5 10 q3.5 4.5 9 7 q5.5 2.5 11.5 0.5 q29 -11 59.5 -27 q30.5 -16 57.5 -32.5 q27 -16.5 48 -31.5 q21 -15 30 -24 q17 -17 19 -32 q2 -15 -6 -33 q-7 -19 -14 -31 q-7 -12 -18 -23 q-15 -15 -32.5 -13 q-17.5 2 -31.5 30 q-8 16 -19 33.5 q-11 17.5 -24 36.5 q-30 -9 -77.5 -20 q-47.5 -11 -100.5 -22.5 q-53 -11.5 -105 -22 q-52 -10.5 -92 -16.5 q-22 -4 -31 -1.5 q-9 2.5 -15 18.5 q-5 11 -7.5 23.5 q-2.5 12.5 -7.5 32.5 ZM708 315 q0 19 11 24 q11 5 24 4 l46 0 q13 0 21.5 -5.5 q8.5 -5.5 8.5 -24.5 l0 -235 q0 -26 7 -33 q7 -7 36 -8 q9 0 21.5 0 q12.5 0 25.5 0 q13 0 24 0 q11 0 16 0 q22 1 14 -23 q-7 -18 -13 -32 q-6 -14 -14 -29 q-6 -12 -16 -16 q-10 -4 -23 -5 q-17 -2 -39.5 -2.5 q-22.5 -0.5 -53.5 1.5 q-19 2 -36 8 q-17 6 -30.5 20 q-13.5 14 -21.5 37.5 q-8 23.5 -8 59.5 l0 259 ZM58 186 q-6 14 6 24 q12 12 27 2 q17 -12 39 -31 l132 308 q2 4 8 4.5 q6 0.5 12.5 -1.5 q6.5 -2 11 -6 q4.5 -4 4.5 -8 l-87 -373 q19 -20 29 -35 q13 -20 16 -36 q3 -16 -7 -36 q-5 -11 -16 -26 q-11 -15 -28 -26 q-22 -16 -38.5 -13 q-16.5 3 -26.5 37 q-14 45 -36.5 102 q-22.5 57 -45.5 114 ZM228 -71 q37 38 62 72 q25 34 40 71.5 q15 37.5 21.5 81.5 q6.5 44 6.5 103 l0 52 q0 11 9.5 20.5 q9.5 9.5 20.5 9.5 l59 0 q11 0 20.5 -9.5 q9.5 -9.5 9.5 -20.5 q0 -22 -0.5 -32 q-0.5 -10 -1.5 -29 q-3 -74 -16 -127.5 q-13 -53.5 -40 -93.5 q-27 -40 -69 -70 q-42 -30 -103 -58 q-4 -2 -9 1.5 q-5 3.5 -8.5 8.5 q-3.5 5 -4.5 10.5 q-1 5.5 3 9.5 ZM535 310 q0 11 9.5 20.5 q9.5 9.5 20.5 9.5 l51 0 q11 0 20.5 -9.5 q9.5 -9.5 9.5 -20.5 l0 -353 q0 -11 -9.5 -20.5 q-9.5 -9.5 -20.5 -9.5 l-51 0 q-11 0 -20.5 9.5 q-9.5 9.5 -9.5 20.5 l0 353 ZM102 756 q-2 3 -0.5 8.5 q1.5 5.5 5 10 q3.5 4.5 9 7.5 q5.5 3 10.5 2 q47 -12 82.5 -25.5 q35.5 -13.5 55.5 -28.5 q16 -12 20.5 -25.5 q4.5 -13.5 -6.5 -41.5 q-4 -11 -11.5 -24 q-7.5 -13 -19.5 -25 q-17 -17 -35.5 -14 q-18.5 3 -32.5 32 q-14 31 -34 62 q-20 31 -43 62 ZM41 522 q-6 9 2 20 q8 11 18 9 q45 -9 81 -23 q36 -14 56 -30 q16 -12 19 -27.5 q3 -15.5 -5 -38.5 q-4 -11 -10.5 -23.5 q-6.5 -12.5 -18.5 -26.5 q-15 -17 -33.5 -16 q-18.5 1 -32.5 30 q-29 61 -76 126 Z" /><glyph glyph-name="" unicode="&#x6d4b;" d="M284 731 q0 11 9.5 20.5 q9.5 9.5 20.5 9.5 l32 0 q10 0 18.5 -7.5 q8.5 -7.5 10.5 -17.5 l185 0 q1 11 10 19 q9 8 20 8 l32 0 q11 0 20.5 -9.5 q9.5 -9.5 9.5 -20.5 l0 -560 q0 -11 -9.5 -20.5 q-9.5 -9.5 -20.5 -9.5 l-32 0 q-11 0 -20.5 9.5 q-9.5 9.5 -9.5 20.5 l0 515 l-184 0 l0 -517 q0 -11 -9.5 -20.5 q-9.5 -9.5 -20.5 -9.5 l-32 0 q-11 0 -20.5 9.5 q-9.5 9.5 -9.5 20.5 l0 560 ZM744 -20 q-5 9 -3 17 q2 8 13 10 l32 6 q27 5 33.5 19 q6.5 14 6.5 41 l0 684 q0 14 9 24.5 q9 10.5 29 10.5 l31 0 q20 -2 27.5 -12 q7.5 -10 7.5 -23 l0 -724 q0 -49 -10 -74.5 q-10 -25.5 -40 -38.5 q-13 -5 -28 -8.5 q-15 -3.5 -35 -6.5 q-19 -2 -26 2.5 q-7 4.5 -15 16.5 q-10 14 -17 27 q-7 13 -15 29 ZM237 -66 q56 49 91.5 91.5 q35.5 42.5 55.5 87.5 q20 45 27.5 97 q7.5 52 7.5 120 l0 248 q0 11 9.5 20.5 q9.5 9.5 20.5 9.5 l38 0 q11 0 20.5 -9.5 q9.5 -9.5 9.5 -20.5 l0 -172 q0 -81 -4.5 -142.5 q-4.5 -61.5 -17.5 -109.5 q50 -22 86 -42 q36 -20 59 -40 q19 -17 21.5 -32.5 q2.5 -15.5 -4.5 -35.5 q-9 -28 -28 -47 q-12 -12 -28 -12.5 q-16 -0.5 -29 24.5 q-19 36 -40.5 70 q-21.5 34 -50.5 72 q-13 -33 -32.5 -60 q-19.5 -27 -47.5 -51.5 q-28 -24.5 -64 -48 q-36 -23.5 -82 -47.5 q-5 -2 -10 1 q-5 3 -8 8.5 q-3 5.5 -3.5 11.5 q-0.5 6 3.5 9 ZM52 176 q-3 8 -1 13.5 q2 5.5 7 11.5 q6 7 12.5 7 q6.5 0 11.5 -5 q7 -5 16 -13 q9 -8 19 -18 l113 322 q1 4 7 4.5 q6 0.5 12 -2 q6 -2.5 10.5 -6 q4.5 -3.5 4.5 -6.5 l-72 -390 q9 -11 16 -20 q7 -9 12 -17 q12 -20 14.5 -36.5 q2.5 -16.5 -6.5 -37.5 q-5 -11 -15 -26.5 q-10 -15.5 -25 -26.5 q-20 -16 -35.5 -13 q-15.5 3 -24.5 37 q-12 46 -33 105 q-21 59 -43 117 ZM698 663 q0 11 9.5 20.5 q9.5 9.5 20.5 9.5 l26 0 q11 0 20.5 -9.5 q9.5 -9.5 9.5 -20.5 l0 -521 q0 -11 -9.5 -20.5 q-9.5 -9.5 -20.5 -9.5 l-26 0 q-11 0 -20.5 9.5 q-9.5 9.5 -9.5 20.5 l0 521 ZM98 754 q-3 4 -1.5 9.5 q1.5 5.5 5 10 q3.5 4.5 8.5 7.5 q5 3 9 2 q42 -12 75 -26 q33 -14 51 -28 q14 -11 17.5 -26.5 q3.5 -15.5 -6.5 -41.5 q-4 -11 -9 -21 q-5 -10 -15 -22 q-13 -16 -32.5 -17.5 q-19.5 -1.5 -31.5 27.5 q-14 31 -33 64.5 q-19 33.5 -37 61.5 ZM36 520 q-2 4 -1 9.5 q1 5.5 4 10 q3 4.5 7 7.5 q4 3 8 2 q39 -9 75.5 -23.5 q36.5 -14.5 53.5 -29.5 q14 -12 17 -26.5 q3 -14.5 -7 -39.5 q-5 -11 -11.5 -24 q-6.5 -13 -17.5 -24 q-15 -16 -31 -15.5 q-16 0.5 -28 29.5 q-14 32 -31.5 62 q-17.5 30 -37.5 62 Z" /><glyph glyph-name="" unicode="&#x7247;" d="M613 315 q0 11 9.5 20.5 q9.5 9.5 20.5 9.5 l70 0 q11 0 20.5 -9.5 q9.5 -9.5 9.5 -20.5 l0 -376 q0 -11 -9.5 -20.5 q-9.5 -9.5 -20.5 -9.5 l-70 0 q-11 0 -20.5 9.5 q-9.5 9.5 -9.5 20.5 l0 318 l-311 0 q-12 -59 -32 -108.5 q-20 -49.5 -49 -92.5 q-29 -43 -67.5 -81.5 q-38.5 -38.5 -87.5 -75.5 q-5 -3 -11 -1 q-6 2 -11 6.5 q-5 4.5 -7 11 q-2 6.5 3 12.5 q44 67 73 128 q29 61 46 124.5 q17 63.5 23.5 135 q6.5 71.5 6.5 160.5 l0 273 q0 11 9.5 20.5 q9.5 9.5 20.5 9.5 l72 0 q11 0 20.5 -9.5 q9.5 -9.5 9.5 -20.5 l0 -210 l234 0 l0 223 q0 11 9.5 20.5 q9.5 9.5 20.5 9.5 l68 0 q11 0 20.5 -9.5 q9.5 -9.5 9.5 -20.5 l0 -223 l245 0 q6 0 11.5 -5.5 q5.5 -5.5 5.5 -11.5 l0 -20 q0 -7 -5.5 -12 q-5.5 -5 -11.5 -5 l-607 0 l0 -9 q0 -47 -3 -88 q-3 -41 -8 -79 l303 0 l0 6 Z" /><glyph glyph-name="" unicode="&#x73cd;" d="M300 434 q46 44 84 83.5 q38 39.5 70 80 q32 40.5 58 85.5 q26 45 49 99 q2 11 9.5 17 q7.5 6 24.5 3 q5 -1 13.5 -3.5 q8.5 -2.5 19 -5.5 q10.5 -3 21 -6 q10.5 -3 19.5 -6 q27 -10 16 -36 l-20 -37 q66 -64 138.5 -102 q72.5 -38 150.5 -69 q11 -4 12 -12 q1 -8 -7 -18 q-15 -21 -29.5 -38.5 q-14.5 -17.5 -31.5 -32.5 q-11 -10 -24 -11.5 q-13 -1.5 -26 8.5 q-57 37 -112 94.5 q-55 57.5 -93 145.5 q-29 -46 -62 -82.5 q-33 -36.5 -69.5 -67 q-36.5 -30.5 -77 -56 q-40.5 -25.5 -85.5 -47.5 q2 -4 2 -7 l0 -13 q0 -8 -6.5 -13 q-6.5 -5 -14.5 -5 l-69 0 l0 -244 l95 20 q6 1 11.5 -3.5 q5.5 -4.5 8 -11.5 q2.5 -7 2 -14 q-0.5 -7 -6.5 -11 q-27 -18 -63 -37.5 q-36 -19.5 -73 -38.5 q-37 -19 -69.5 -34.5 q-32.5 -15.5 -52.5 -24.5 q-18 -8 -28.5 -4.5 q-10.5 3.5 -18.5 20.5 q-4 9 -11 27 q-7 18 -10 30 q-6 17 -1.5 27 q4.5 10 24.5 14 l81 17 l0 268 l-65 0 q-8 0 -14.5 5 q-6.5 5 -6.5 13 l0 13 q0 8 6.5 13.5 q6.5 5.5 14.5 5.5 l65 0 l0 246 l-74 0 q-8 0 -14.5 5 q-6.5 5 -6.5 13 l0 13 q0 8 6.5 13 q6.5 5 14.5 5 l265 0 q8 0 14.5 -5 q6.5 -5 6.5 -13 l0 -13 q0 -8 -6.5 -13 q-6.5 -5 -14.5 -5 l-79 0 l0 -246 l38 0 q0 0 2 2 ZM306 -82 q79 34 145 67.5 q66 33.5 121 69 q55 35.5 101 74 q46 38.5 85 83.5 q12 14 21 15 q9 1 27 -9 q14 -7 30 -18 q16 -11 33 -25 q9 -8 11 -17 q2 -9 -11 -23 q-33 -33 -89.5 -71 q-56.5 -38 -129.5 -72.5 q-73 -34.5 -158.5 -62 q-85.5 -27.5 -176.5 -39.5 q-5 -1 -7.5 3 q-2.5 4 -4 9 q-1.5 5 -1 10 q0.5 5 3.5 6 ZM380 131 q114 63 186 124.5 q72 61.5 120 120.5 q11 14 24 15 q13 1 31 -10 q5 -3 9 -6 q4 -3 9 -6.5 q5 -3.5 11 -8 q6 -4.5 16 -11.5 q16 -12 13.5 -25 q-2.5 -13 -14.5 -24 q-26 -23 -64 -50 q-38 -27 -87 -53.5 q-49 -26.5 -109 -51 q-60 -24.5 -132 -42.5 q-6 -1 -9.5 2.5 q-3.5 3.5 -5.5 8.5 q-2 5 -1.5 10 q0.5 5 3.5 7 ZM370 308 q65 44 123.5 94.5 q58.5 50.5 109.5 123.5 q21 28 54 6 q11 -7 19 -12.5 q8 -5.5 28 -19.5 q15 -12 14 -23 q-1 -11 -13 -22 q-28 -25 -65 -50.5 q-37 -25.5 -79 -49 q-42 -23.5 -87 -43 q-45 -19.5 -89 -31.5 q-4 -1 -8 2 q-4 3 -7 7.5 q-3 4.5 -3.5 9.5 q-0.5 5 3.5 8 Z" /><glyph glyph-name="" unicode="&#x7535;" d="M108 645 q0 11 9.5 20.5 q9.5 9.5 20.5 9.5 l60 0 q10 0 19 -8 q9 -8 11 -18 l175 0 l0 109 q1 20 12 28.5 q11 8.5 28 8.5 l47 0 q40 0 40 -37 l0 -109 l176 0 q1 11 10 19 q9 8 20 8 l60 0 q11 0 20.5 -9.5 q9.5 -9.5 9.5 -20.5 l0 -478 q0 -11 -9.5 -20.5 q-9.5 -9.5 -20.5 -9.5 l-60 0 q-11 0 -20.5 9.5 q-9.5 9.5 -9.5 20.5 l0 17 l-176 0 l0 -32 q0 -36 2.5 -56 q2.5 -20 11.5 -30 q9 -10 27 -13 q18 -3 49 -4 q41 -2 92.5 -2.5 q51.5 -0.5 98.5 0.5 q47 1 82.5 2 q35.5 1 46.5 2 q15 1 21 -4 q6 -5 1 -22 q-5 -18 -11.5 -32 q-6.5 -14 -14.5 -33 q-12 -23 -35 -26 q-11 -1 -34.5 -2.5 q-23.5 -1.5 -54 -2 q-30.5 -0.5 -65 -0.5 q-34.5 0 -66.5 0 q-32 0 -58.5 1 q-26.5 1 -41.5 2 q-50 5 -84 14.5 q-34 9.5 -55 31.5 q-21 22 -30 60.5 q-9 38.5 -9 101.5 l0 44 l-175 0 l0 -35 q0 -11 -9.5 -20.5 q-9.5 -9.5 -20.5 -9.5 l-60 0 q-11 0 -20.5 9.5 q-9.5 9.5 -9.5 20.5 l0 495 ZM530 233 l176 0 l0 160 l-176 0 l0 -160 ZM530 441 l176 0 l0 160 l-176 0 l0 -160 ZM228 233 l175 0 l0 160 l-175 0 l0 -160 ZM228 441 l175 0 l0 160 l-175 0 l0 -160 Z" /><glyph glyph-name="" unicode="&#x756a;" d="M35 281 q96 58 162.5 109.5 q66.5 51.5 115.5 110.5 l-241 0 q-7 0 -12 5 q-5 5 -5 12 l0 16 q0 6 5 11.5 q5 5.5 12 5.5 l188 0 l0 1 q-8 19 -23 44.5 q-15 25.5 -36 55.5 q-2 4 1 11 q3 7 11 10 q-53 -2 -102 0 q-6 0 -9 6 q-3 6 -3.5 13 q-0.5 7 1 13.5 q1.5 6.5 6.5 6.5 q77 6 164 13.5 q87 7.5 173 17.5 q86 10 165 22 q79 12 141 27 q17 5 32 2 q15 -3 26 -13 q12 -10 22 -21.5 q10 -11.5 17 -20.5 q8 -12 3 -24 q-5 -12 -22 -14 q-48 -5 -117.5 -10 q-69.5 -5 -152.5 -9 q1 -2 1 -7 l0 -124 l84 0 q11 29 19.5 55.5 q8.5 26.5 13.5 46.5 q3 11 13.5 16 q10.5 5 23.5 2 q16 -4 35.5 -10.5 q19.5 -6.5 28.5 -11.5 q14 -8 14 -20 q0 -12 -11 -23 q-12 -13 -30 -27.5 q-18 -14.5 -36 -27.5 l216 0 q6 0 11.5 -5.5 q5.5 -5.5 5.5 -11.5 l0 -16 q0 -7 -5.5 -12 q-5.5 -5 -11.5 -5 l-307 0 q60 -45 139 -78.5 q79 -33.5 186 -51.5 q11 -2 14 -9.5 q3 -7.5 -3 -17.5 q-6 -10 -21 -30 q-15 -20 -30 -37 q-13 -14 -22.5 -16.5 q-9.5 -2.5 -26.5 3.5 q-11 4 -21 8 q-10 4 -19 8 l0 -344 q0 -11 -9.5 -20.5 q-9.5 -9.5 -20.5 -9.5 l-62 0 q-11 0 -20.5 9.5 q-9.5 9.5 -9.5 20.5 l0 16 l-397 0 l0 -16 q0 -11 -9.5 -20.5 q-9.5 -9.5 -20.5 -9.5 l-62 0 q-11 0 -20.5 9.5 q-9.5 9.5 -9.5 20.5 l0 356 l0 3 q-57 -26 -128 -51 q-5 -2 -10.5 2.5 q-5.5 4.5 -8.5 11 q-3 6.5 -2 13 q1 6.5 7 10.5 ZM468 331 q-11 0 -20.5 9.5 q-9.5 9.5 -9.5 20.5 l0 105 q-48 -44 -97 -79 q-49 -35 -108 -65 l36 0 q8 0 15.5 -5.5 q7.5 -5.5 11.5 -13.5 l401 0 q4 8 12 14.5 q8 6.5 17 6.5 l9 0 q-56 35 -95 79 q-39 44 -69 98 l-13 0 l0 -140 q0 -11 -9.5 -20.5 q-9.5 -9.5 -20.5 -9.5 l-60 0 ZM556 0 l140 0 l0 104 l-140 0 l0 -104 ZM299 0 l139 0 l0 104 l-139 0 l0 -104 ZM438 677 q-54 -2 -107.5 -3 q-53.5 -1 -104.5 -1 q41 -11 66.5 -22 q25.5 -11 42.5 -24 q25 -17 11 -46 q-8 -16 -22 -30 l114 0 l0 124 l0 2 ZM556 152 l140 0 l0 103 l-140 0 l0 -103 ZM299 152 l139 0 l0 103 l-139 0 l0 -103 Z" /><glyph glyph-name="" unicode="&#x7684;" d="M336 634 q0 11 9.5 20.5 q9.5 9.5 20.5 9.5 l56 0 q11 0 20.5 -9.5 q9.5 -9.5 9.5 -20.5 l0 -661 q0 -11 -9.5 -20.5 q-9.5 -9.5 -20.5 -9.5 l-56 0 q-11 0 -20.5 9.5 q-9.5 9.5 -9.5 20.5 l0 50 l-133 0 l0 -66 q0 -11 -9.5 -20.5 q-9.5 -9.5 -20.5 -9.5 l-56 0 q-11 0 -20.5 9.5 q-9.5 9.5 -9.5 20.5 l0 672 q0 11 9.5 20.5 q9.5 9.5 20.5 9.5 l56 0 q8 0 16 -6 q8 -6 12 -14 q1 18 2.5 37 q1.5 19 3 36.5 q1.5 17.5 2 31.5 q0.5 14 0.5 22 q0 18 7.5 26 q7.5 8 27.5 6 q20 -2 38 -4 q18 -2 35 -6 q18 -5 22 -15.5 q4 -10.5 -3 -25.5 q-13 -29 -33 -61.5 q-20 -32.5 -43 -57.5 l76 0 l0 6 ZM651 2 q-5 9 -1.5 16 q3.5 7 13.5 9 q20 2 43 5.5 q23 3.5 36 6.5 q25 5 33.5 21 q8.5 16 10.5 46 q1 28 2 67.5 q1 39.5 1.5 84 q0.5 44.5 1 92.5 q0.5 48 1 93.5 q0.5 45.5 1 85 q0.5 39.5 0.5 68.5 l-154 0 q-29 -52 -67 -102.5 q-38 -50.5 -89 -89.5 q-4 -3 -9.5 -1.5 q-5.5 1.5 -10.5 5.5 q-5 4 -8 9 q-3 5 -1 8 q26 53 45.5 99.5 q19.5 46.5 34 88.5 q14.5 42 25.5 81 q11 39 20 77 q4 16 12.5 22 q8.5 6 30.5 2 q14 -2 33.5 -7 q19.5 -5 30.5 -9 q17 -6 21 -14.5 q4 -8.5 -2 -25.5 q-8 -20 -18 -43.5 q-10 -23.5 -22 -49.5 l129 0 l0 7 q1 14 8 22.5 q7 8.5 26 8.5 q13 -1 31.5 -1.5 q18.5 -0.5 26.5 -0.5 q23 -2 27.5 -11 q4.5 -9 4.5 -23 q-2 -137 -4 -255 q-1 -50 -2 -101.5 q-1 -51.5 -2 -96.5 q-1 -45 -2 -81.5 q-1 -36.5 -2 -56.5 q-3 -56 -19.5 -88 q-16.5 -32 -51.5 -46 q-20 -8 -41 -12.5 q-21 -4.5 -53 -7.5 q-21 -2 -29.5 1.5 q-8.5 3.5 -17.5 17.5 q-4 6 -9.5 15.5 q-5.5 9.5 -11.5 20.5 q-6 11 -12 22.5 q-6 11.5 -10 20.5 ZM203 71 l133 0 l0 239 l-133 0 l0 -239 ZM203 358 l133 0 l0 222 l-133 0 l0 -222 ZM545 407 q-2 6 -1 10 q1 4 9 10 q6 5 10.5 4 q4.5 -1 10.5 -4 q57 -33 93.5 -67.5 q36.5 -34.5 54.5 -64.5 q11 -18 9 -33 q-2 -15 -12 -33 q-5 -8 -17 -22.5 q-12 -14.5 -29 -25.5 q-15 -10 -31.5 -7 q-16.5 3 -22.5 26 q-6 22 -14.5 48.5 q-8.5 26.5 -18.5 54 q-10 27.5 -20.5 54.5 q-10.5 27 -20.5 50 Z" /><glyph glyph-name="" unicode="&#x7801;" d="M37 241 q50 104 84 214 q34 110 48 234 l-98 0 q-7 0 -12 5 q-5 5 -5 12 l0 13 q0 6 5 11.5 q5 5.5 12 5.5 l348 0 q6 0 11.5 -5.5 q5.5 -5.5 5.5 -11.5 l0 -13 q0 -7 -5.5 -12 q-5.5 -5 -11.5 -5 l-127 0 q-10 -61 -28.5 -119.5 q-18.5 -58.5 -44.5 -115.5 q2 -2 4.5 -5.5 q2.5 -3.5 3.5 -6.5 l78 0 l0 5 q0 11 9.5 20.5 q9.5 9.5 20.5 9.5 l46 0 q11 0 20.5 -9.5 q9.5 -9.5 9.5 -20.5 l0 -456 q0 -11 -9.5 -20.5 q-9.5 -9.5 -20.5 -9.5 l-46 0 q-11 0 -20.5 9.5 q-9.5 9.5 -9.5 20.5 l0 50 l-76 0 l0 -68 q0 -11 -9.5 -20.5 q-9.5 -9.5 -20.5 -9.5 l-46 0 q-11 0 -20.5 9.5 q-9.5 9.5 -9.5 20.5 l0 317 q-30 -41 -61 -75 q-3 -3 -8.5 -2 q-5.5 1 -10 5 q-4.5 4 -7 10 q-2.5 6 0.5 13 ZM456 723 q0 6 5 11.5 q5 5.5 11 5.5 l264 0 l1 11 q1 11 10 19.5 q9 8.5 20 7.5 l59 -7 q10 -1 18.5 -10.5 q8.5 -9.5 7.5 -20.5 l-37 -350 q5 4 12 5 q7 1 17 1 l40 -3 q20 -3 27.5 -12.5 q7.5 -9.5 6.5 -26.5 q-2 -42 -4 -87 q-2 -45 -4.5 -86.5 q-2.5 -41.5 -5 -76.5 q-2.5 -35 -5.5 -57 q-3 -25 -7.5 -46 q-4.5 -21 -14 -37.5 q-9.5 -16.5 -26 -28.5 q-16.5 -12 -43.5 -19 q-19 -5 -36 -7 q-17 -2 -37 -4 q-20 -2 -29.5 2 q-9.5 4 -18.5 20 q-11 17 -16 27.5 q-5 10.5 -13 27.5 q-8 17 -3 25 q5 8 19 8 q13 1 24 3 q10 2 20.5 3 q10.5 1 17.5 3 q22 4 33.5 16 q11.5 12 15.5 43 q2 16 4.5 42.5 q2.5 26.5 5 58.5 q2.5 32 4.5 68 q2 36 3 72 l-235 0 l-3 -19 q-2 -11 -12.5 -19 q-10.5 -8 -20.5 -6 l-50 7 q-11 2 -18 12 q-7 10 -5 21 l38 284 q1 11 10.5 19 q9.5 8 20.5 7 l55 -7 q10 -2 18 -11.5 q8 -9.5 6 -20.5 l-32 -217 l127 0 l30 318 l-259 0 q-6 0 -11 5 q-5 5 -5 12 l0 14 ZM229 89 l76 0 l0 305 l-76 0 l0 -305 ZM430 167 q0 6 5 11.5 q5 5.5 12 5.5 l278 0 q6 0 11.5 -5.5 q5.5 -5.5 5.5 -11.5 l0 -16 q0 -7 -5.5 -12 q-5.5 -5 -11.5 -5 l-278 0 q-7 0 -12 5 q-5 5 -5 12 l0 16 Z" /><glyph glyph-name="" unicode="&#x79d1;" d="M35 85 q50 98 84 191.5 q34 93.5 55 179.5 l-107 0 q-7 0 -12 5 q-5 5 -5 12 l0 20 q0 6 5 11.5 q5 5.5 12 5.5 l127 0 l0 146 q-43 -3 -79.5 -4.5 q-36.5 -1.5 -59.5 -0.5 q-5 0 -8 4.5 q-3 4.5 -3.5 10.5 q-0.5 6 0.5 11.5 q1 5.5 6 6.5 q38 10 79.5 21.5 q41.5 11.5 81 23.5 q39.5 12 75 25.5 q35.5 13.5 61.5 27.5 q32 17 56 -4 q14 -13 24 -26 q10 -13 18 -25 q10 -14 6.5 -26 q-3.5 -12 -20.5 -16 q-17 -5 -48 -9.5 q-31 -4.5 -69 -8.5 l0 -157 l135 0 q6 0 11.5 -5.5 q5.5 -5.5 5.5 -11.5 l0 -20 q0 -7 -5.5 -12 q-5.5 -5 -11.5 -5 l-135 0 l0 -57 q42 -18 77.5 -39.5 q35.5 -21.5 47.5 -35.5 q13 -14 13.5 -28 q0.5 -14 -7.5 -31 q-5 -12 -13.5 -25 q-8.5 -13 -19.5 -23 q-14 -14 -30 -12 q-16 2 -23 23 q-9 26 -21 56.5 q-12 30.5 -24 56.5 l0 -407 q0 -11 -9.5 -20.5 q-9.5 -9.5 -20.5 -9.5 l-60 0 q-11 0 -20.5 9.5 q-9.5 9.5 -9.5 20.5 l0 306 q-31 -54 -63 -99 q-32 -45 -69 -80 q-4 -4 -9.5 -3 q-5.5 1 -10.5 5.5 q-5 4.5 -7.5 10.5 q-2.5 6 0.5 11 ZM721 761 q0 11 9.5 20.5 q9.5 9.5 20.5 9.5 l63 0 q11 0 20.5 -9.5 q9.5 -9.5 9.5 -20.5 l0 -530 l87 11 q6 1 11 -3.5 q5 -4.5 6 -10.5 l2 -20 q0 -7 -4.5 -13 q-4.5 -6 -10.5 -7 l-91 -12 l0 -243 q0 -11 -9.5 -20.5 q-9.5 -9.5 -20.5 -9.5 l-63 0 q-11 0 -20.5 9.5 q-9.5 9.5 -9.5 20.5 l0 228 l-290 -35 q-6 -2 -11.5 2.5 q-5.5 4.5 -5.5 11.5 l-3 21 q-1 6 4 12 q5 6 11 8 l295 35 l0 545 ZM478 452 q-3 8 4.5 17.5 q7.5 9.5 18.5 5.5 q19 -7 39.5 -16.5 q20.5 -9.5 39.5 -20.5 q19 -11 34.5 -21.5 q15.5 -10.5 24.5 -18.5 q17 -16 20 -31.5 q3 -15.5 -4 -33.5 q-5 -15 -10.5 -24 q-5.5 -9 -16.5 -22 q-17 -20 -37.5 -18 q-20.5 2 -28.5 22 q-15 41 -37.5 82 q-22.5 41 -46.5 79 ZM502 693 q-5 11 4.5 19.5 q9.5 8.5 18.5 5.5 q18 -7 38 -16.5 q20 -9.5 38.5 -20 q18.5 -10.5 33.5 -21 q15 -10.5 24 -18.5 q19 -17 20.5 -32 q1.5 -15 -6.5 -33 q-5 -15 -10 -24 q-5 -9 -16 -22 q-17 -20 -37.5 -18 q-20.5 2 -28.5 22 q-16 41 -35.5 80.5 q-19.5 39.5 -43.5 77.5 Z" /><glyph glyph-name="" unicode="&#x7b54;" d="M43 286 q63 31 119 61.5 q56 30.5 104 64.5 q48 34 88 73.5 q40 39.5 72 87.5 q5 8 16 13.5 q11 5.5 31 1.5 l22 -6 q34 52 55.5 95.5 q21.5 43.5 35.5 90.5 q7 22 15.5 27.5 q8.5 5.5 34.5 0.5 q18 -3 29.5 -6 q11.5 -3 25.5 -7 q35 -7 17 -41 q-5 -9 -10 -17 q-5 -8 -10 -16 l240 0 q8 0 14 -5 q6 -5 6 -13 l0 -13 q0 -8 -6 -13 q-6 -5 -14 -5 l-198 0 q25 -11 43.5 -20.5 q18.5 -9.5 27.5 -15.5 q20 -14 23 -28.5 q3 -14.5 -5 -34.5 q-4 -9 -11.5 -21 q-7.5 -12 -17.5 -22 q-15 -13 -31.5 -11.5 q-16.5 1.5 -24.5 22.5 q-11 29 -29 62.5 q-18 33.5 -43 68.5 l-9 0 q-45 -57 -105 -99 q8 -6 9.5 -16 q1.5 -10 -3.5 -17 q73 -54 169.5 -93.5 q96.5 -39.5 224.5 -62.5 q13 -2 16 -8.5 q3 -6.5 -6 -19.5 q-10 -15 -27.5 -36.5 q-17.5 -21.5 -32.5 -34.5 q-22 -20 -50 -8 q-77 25 -135 61 l0 -12 q0 -7 -5.5 -12 q-5.5 -5 -11.5 -5 l-389 0 q-7 0 -12 5 q-5 5 -5 12 l0 16 l0 1 q-98 -44 -232 -79 q-5 -2 -9.5 2.5 q-4.5 4.5 -7.5 10.5 q-3 6 -3 12.5 q0 6.5 5 8.5 ZM199 197 q0 11 9.5 20.5 q9.5 9.5 20.5 9.5 l63 0 q9 0 17.5 -6.5 q8.5 -6.5 11.5 -15.5 l353 0 q1 11 10 19.5 q9 8.5 20 8.5 l64 0 q11 0 20.5 -9.5 q9.5 -9.5 9.5 -20.5 l0 -268 q0 -11 -9.5 -20.5 q-9.5 -9.5 -20.5 -9.5 l-64 0 q-11 0 -20.5 9.5 q-9.5 9.5 -9.5 20.5 l0 24 l-352 0 l0 -23 q0 -11 -9.5 -20.5 q-9.5 -9.5 -20.5 -9.5 l-63 0 q-11 0 -20.5 9.5 q-9.5 9.5 -9.5 20.5 l0 261 ZM42 499 q57 73 94 144.5 q37 71.5 56 128.5 q6 18 15.5 23 q9.5 5 32.5 2 q32 -3 60 -11 q19 -5 23.5 -14.5 q4.5 -9.5 -5.5 -28.5 q-4 -8 -9 -16.5 q-5 -8.5 -10 -17.5 l200 0 q8 0 14.5 -5 q6.5 -5 6.5 -13 l0 -13 q0 -8 -6.5 -13 q-6.5 -5 -14.5 -5 l-178 0 q37 -16 54 -29 q18 -13 21.5 -25 q3.5 -12 -1.5 -27 q-1 -4 -4.5 -11 q-3.5 -7 -8 -14 q-4.5 -7 -10 -14 q-5.5 -7 -10.5 -11 q-14 -13 -29.5 -11.5 q-15.5 1.5 -23.5 21.5 q-11 28 -23.5 58 q-12.5 30 -26.5 53 q-35 -48 -84 -97 q-49 -49 -111 -80 q-5 -2 -10 0.5 q-5 2.5 -9 7 q-4 4.5 -5 10 q-1 5.5 2 8.5 ZM322 7 l352 0 l0 150 l-352 0 l0 -150 ZM528 498 q-40 -44 -90 -81.5 q-50 -37.5 -116 -69.5 l358 0 q-45 32 -82.5 69.5 q-37.5 37.5 -69.5 81.5 Z" /><glyph glyph-name="" unicode="&#x7bc7;" d="M428 592 q-3 3 -2 8 q1 5 4 10 q8 9 16 8 q14 -2 28 -4.5 q14 -2.5 28 -5.5 q37 50 57 91 q20 41 36 81 q2 10 13.5 16.5 q11.5 6.5 23.5 3.5 l59 -13 q12 -3 17 -13 q5 -10 0 -20 l-20 -30 l238 0 q8 0 14 -5 q6 -5 6 -13 l0 -13 q0 -8 -6 -13 q-6 -5 -14 -5 l-168 0 q17 -8 29.5 -14.5 q12.5 -6.5 19.5 -11.5 q14 -12 16.5 -23.5 q2.5 -11.5 -4.5 -25.5 q-5 -8 -11.5 -17.5 q-6.5 -9.5 -16.5 -17.5 q-14 -11 -28.5 -11.5 q-14.5 -0.5 -22.5 19.5 q-9 23 -19 47.5 q-10 24.5 -29 54.5 l-42 0 q-22 -25 -44.5 -44.5 q-22.5 -19.5 -48.5 -36.5 l20 -9 q17 -9 18.5 -21 q1.5 -12 -7.5 -23 q-4 -5 -9.5 -10 q-5.5 -5 -10.5 -10 l189 0 q1 11 10 19 q9 8 20 8 l58 0 q11 0 20.5 -9.5 q9.5 -9.5 9.5 -20.5 l0 -165 q0 -11 -9.5 -20.5 q-9.5 -9.5 -20.5 -9.5 l-58 0 q-10 0 -18 6.5 q-8 6.5 -11 15.5 l-492 0 q-1 -13 -1.5 -25.5 q-0.5 -12.5 -2.5 -24.5 l41 0 q9 0 17 -6.5 q8 -6.5 11 -14.5 l457 0 q2 11 11.5 17.5 q9.5 6.5 26.5 5.5 l41 0 q20 -1 27.5 -10.5 q7.5 -9.5 7.5 -23.5 l0 -236 q0 -46 -13.5 -73.5 q-13.5 -27.5 -48.5 -38.5 q-27 -8 -59 -10 q-10 -1 -16 -0.5 q-6 0.5 -9.5 2 q-3.5 1.5 -6.5 5.5 q-3 4 -7 11 q-8 14 -15 31.5 q-7 17.5 -11 26.5 q-7 19 14 20 l23 4 q23 3 28.5 13.5 q5.5 10.5 5.5 35.5 l0 24 l-78 0 l0 -122 q0 -11 -9.5 -20.5 q-9.5 -9.5 -20.5 -9.5 l-50 0 q-11 0 -20.5 9.5 q-9.5 9.5 -9.5 20.5 l0 122 l-78 0 l0 -120 q0 -11 -9.5 -20.5 q-9.5 -9.5 -20.5 -9.5 l-50 0 q-11 0 -20.5 9.5 q-9.5 9.5 -9.5 20.5 l0 120 l-78 0 l0 -143 q0 -11 -9.5 -20.5 q-9.5 -9.5 -20.5 -9.5 l-54 0 q-11 0 -20.5 9.5 q-9.5 9.5 -9.5 20.5 l0 208 q-54 -121 -163 -221 q-4 -4 -10 -2.5 q-6 1.5 -10.5 6 q-4.5 4.5 -6.5 10.5 q-2 6 2 12 q57 87 86.5 193 q29.5 106 29.5 224 l0 148 q0 11 7.5 20.5 q7.5 9.5 18.5 9.5 l64 0 q9 0 17.5 -6.5 q8.5 -6.5 11.5 -15.5 l221 0 q-10 16 -24 32.5 q-14 16.5 -35 38.5 ZM44 557 q24 30 42.5 57 q18.5 27 33.5 53.5 q15 26.5 27.5 54 q12.5 27.5 24.5 58.5 q3 14 15 19 q12 5 26 2 l62 -17 q11 -3 15.5 -15 q4.5 -12 -1.5 -21 q-4 -7 -7.5 -12.5 q-3.5 -5.5 -7.5 -11.5 l246 0 q8 0 14.5 -5 q6.5 -5 6.5 -13 l0 -13 q0 -8 -6.5 -13 q-6.5 -5 -14.5 -5 l-194 0 q21 -8 37.5 -16.5 q16.5 -8.5 24.5 -14.5 q14 -12 16.5 -23.5 q2.5 -11.5 -5.5 -25.5 q-4 -8 -10.5 -17.5 q-6.5 -9.5 -16.5 -17.5 q-14 -11 -28.5 -11.5 q-14.5 -0.5 -22.5 19.5 q-9 24 -20 49.5 q-11 25.5 -31 57.5 l-32 0 q-36 -46 -78 -81 q-42 -35 -95 -66 q-3 -2 -8 1 q-5 3 -9 8 q-4 5 -5.5 10.5 q-1.5 5.5 1.5 9.5 ZM267 393 l490 0 l0 83 l-490 0 l0 -83 ZM333 126 l78 0 l0 100 l-78 0 l0 -100 ZM521 126 l78 0 l0 100 l-78 0 l0 -100 ZM709 126 l78 0 l0 100 l-78 0 l0 -100 Z" /><glyph glyph-name="" unicode="&#x7ef4;" d="M631 761 q-3 5 -1.5 10 q1.5 5 5.5 10 q4 4 8.5 6.5 q4.5 2.5 9.5 0.5 q46 -16 80.5 -34.5 q34.5 -18.5 51.5 -34.5 q26 -24 6 -59 q-4 -7 -11 -17.5 q-7 -10.5 -18 -18.5 l163 0 q5 0 10.5 -5.5 q5.5 -5.5 5.5 -11.5 l0 -16 q0 -7 -5.5 -12 q-5.5 -5 -10.5 -5 l-149 0 l0 -156 l125 0 q6 0 11.5 -5.5 q5.5 -5.5 5.5 -11.5 l0 -16 q0 -7 -5.5 -12 q-5.5 -5 -11.5 -5 l-125 0 l0 -156 l127 0 q6 0 11.5 -5.5 q5.5 -5.5 5.5 -11.5 l0 -16 q0 -7 -5.5 -12 q-5.5 -5 -11.5 -5 l-127 0 l0 -156 l155 0 q5 0 10.5 -5 q5.5 -5 5.5 -12 l0 -16 q0 -6 -5.5 -11.5 q-5.5 -5.5 -10.5 -5.5 l-393 0 l0 -21 q0 -11 -9.5 -20.5 q-9.5 -9.5 -20.5 -9.5 l-54 0 q-11 0 -20.5 9.5 q-9.5 9.5 -9.5 20.5 l0 505 q-37 -43 -78 -76 q-3 -3 -8.5 -0.5 q-5.5 2.5 -10 7 q-4.5 4.5 -6.5 9.5 q-2 5 2 9 q53 87 90.5 180.5 q37.5 93.5 66.5 203.5 q2 11 14 17 q12 6 27 2 q14 -5 34 -11.5 q20 -6.5 29 -10.5 q12 -5 15.5 -16.5 q3.5 -11.5 -1.5 -22.5 q-25 -58 -51 -107 l153 0 q-2 3 -6 13 q-6 16 -12 30.5 q-6 14.5 -13 28.5 q-7 14 -16 29.5 q-9 15.5 -22 35.5 ZM43 477 q-3 16 4.5 23.5 q7.5 7.5 22.5 7.5 l4 0 q14 28 29 63 q15 35 29 70.5 q14 35.5 26 68.5 q12 33 20 59 q4 12 12.5 19 q8.5 7 24.5 2 q14 -4 33.5 -12 q19.5 -8 29.5 -12 q26 -14 9 -46 q-12 -21 -29 -48.5 q-17 -27.5 -37.5 -57 q-20.5 -29.5 -43 -57.5 q-22.5 -28 -43.5 -49 l95 1 q12 30 21 55 q9 25 14 42 q3 11 12 20 q9 9 24 4 q19 -6 36.5 -13.5 q17.5 -7.5 30.5 -14.5 q9 -5 11.5 -16 q2.5 -11 -5.5 -27 q-17 -33 -38.5 -69.5 q-21.5 -36.5 -46.5 -73 q-25 -36.5 -51.5 -70.5 q-26.5 -34 -52.5 -61 l178 14 q7 0 12.5 -1.5 q5.5 -1.5 7.5 -11.5 q4 -17 -9 -24 q-10 -5 -30.5 -13.5 q-20.5 -8.5 -45 -18.5 q-24.5 -10 -51.5 -20 q-27 -10 -51.5 -19 q-24.5 -9 -44 -16 q-19.5 -7 -28.5 -10 q-29 -9 -39 18 q-5 11 -10 30 q-5 19 -7 30 q-4 15 3.5 24.5 q7.5 9.5 22.5 10.5 l28 2 q21 38 42 81 q21 43 40 85 q-33 -14 -65 -26 q-32 -12 -46 -17 q-14 -5 -21 -1.5 q-7 3.5 -12 17.5 q-5 14 -8.5 29 q-3.5 15 -6.5 29 ZM39 31 q-4 14 4 23.5 q8 9.5 23 11.5 l305 46 q11 2 15 -1.5 q4 -3.5 6 -10.5 q5 -10 3 -15 q-2 -5 -10 -10 q-20 -12 -53 -28.5 q-33 -16.5 -72 -34.5 q-39 -18 -79 -34.5 q-40 -16.5 -72 -28.5 q-14 -5 -27 -3 q-13 2 -19 15 q-7 17 -13.5 36.5 q-6.5 19.5 -10.5 33.5 ZM538 212 l125 0 l0 156 l-125 0 l0 -156 ZM538 418 l125 0 l0 156 l-125 0 l0 -156 ZM538 6 l125 0 l0 156 l-125 0 l0 -156 Z" /><glyph glyph-name="" unicode="&#x8bc6;" d="M770 728 q0 11 9.5 20.5 q9.5 9.5 20.5 9.5 l62 0 q11 0 20.5 -9.5 q9.5 -9.5 9.5 -20.5 l0 -436 q0 -11 -9.5 -20.5 q-9.5 -9.5 -20.5 -9.5 l-62 0 q-11 0 -20.5 9.5 q-9.5 9.5 -9.5 20.5 l0 3 l-248 0 l0 -14 q0 -11 -9.5 -20.5 q-9.5 -9.5 -20.5 -9.5 l-59 0 q-11 0 -20.5 9.5 q-9.5 9.5 -9.5 20.5 l0 445 q0 11 9.5 20.5 q9.5 9.5 20.5 9.5 l59 0 q11 0 20.5 -9.5 q9.5 -9.5 9.5 -20.5 l0 -3 l248 0 l0 5 ZM142 509 q0 18 13 24.5 q13 6.5 30 6.5 l31 0 q17 0 30 -6.5 q13 -6.5 13 -24.5 l0 -367 l113 63 q3 2 9 -0.5 q6 -2.5 11.5 -7 q5.5 -4.5 7.5 -10.5 q2 -6 -2 -12 q-46 -61 -90 -112 q-44 -51 -92 -95 q-33 -32 -56 -3 q-2 3 -7 10 q-5 7 -10.5 15.5 q-5.5 8.5 -10.5 17.5 q-5 9 -8 17 q-8 16 -6 28.5 q2 12.5 19 20.5 l5 3 l0 4 l0 368 l-71 0 q-8 0 -13.5 5.5 q-5.5 5.5 -5.5 13.5 l0 14 q0 8 5.5 14 q5.5 6 13.5 6 l71 0 l0 7 ZM522 344 l248 0 l0 330 l-248 0 l0 -330 ZM310 -65 q29 34 52.5 64.5 q23.5 30.5 43 62 q19.5 31.5 37 65 q17.5 33.5 34.5 74.5 q7 16 18 18.5 q11 2.5 28 -2.5 q4 -2 11.5 -5.5 q7.5 -3.5 16.5 -7.5 q9 -4 17.5 -8.5 q8.5 -4.5 13.5 -7.5 q17 -10 19 -22.5 q2 -12.5 -9 -29.5 q-18 -27 -44.5 -60 q-26.5 -33 -59.5 -65.5 q-33 -32.5 -71 -61.5 q-38 -29 -78 -48 q-8 -3 -15 -0.5 q-7 2.5 -11.5 8.5 q-4.5 6 -6 13 q-1.5 7 3.5 13 ZM704 181 q-3 5 -1 11.5 q2 6.5 7 11 q5 4.5 11 6.5 q6 2 11 -1 q66 -38 113 -75.5 q47 -37.5 76 -73.5 q13 -17 15.5 -35 q2.5 -18 -6.5 -42 q-6 -16 -17.5 -35 q-11.5 -19 -23.5 -27 q-9 -6 -18.5 -9.5 q-9.5 -3.5 -18.5 -2 q-9 1.5 -16.5 9 q-7.5 7.5 -13.5 23.5 q-21 56 -52 117.5 q-31 61.5 -66 121.5 ZM120 754 q-4 6 -2.5 12 q1.5 6 5.5 10.5 q4 4.5 9.5 7 q5.5 2.5 10.5 1.5 q17 -5 37.5 -14 q20.5 -9 39.5 -19 q19 -10 34 -20.5 q15 -10.5 23 -18.5 q16 -17 18.5 -31 q2.5 -14 -4.5 -34 q-3 -9 -11 -23 q-8 -14 -20 -25 q-17 -17 -37.5 -17.5 q-20.5 -0.5 -31.5 28.5 q-13 37 -29.5 69.5 q-16.5 32.5 -41.5 73.5 Z" /><glyph glyph-name="" unicode="&#x8bd5;" d="M637 754 q0 21 9 30.5 q9 9.5 24 9.5 l51 0 q36 0 35 -40 q-1 -32 -1 -71.5 q0 -39.5 1 -80.5 l169 0 q8 0 13.5 -6 q5.5 -6 5.5 -14 l0 -14 q0 -19 -19 -19 l-167 0 q1 -24 1.5 -44.5 q0.5 -20.5 2.5 -36.5 q5 -89 18.5 -152 q13.5 -63 37 -113.5 q23.5 -50.5 57 -95 q33.5 -44.5 78.5 -96.5 q15 -18 2 -38 q-3 -5 -10 -13.5 q-7 -8.5 -15.5 -17.5 q-8.5 -9 -17.5 -18.5 q-9 -9.5 -18 -16.5 q-25 -21 -46 0 q-55 54 -93 114 q-38 60 -62 129.5 q-24 69.5 -36 149.5 q-12 80 -15 174 q-2 20 -2.5 38.5 q-0.5 18.5 -1.5 36.5 l-319 0 q-8 0 -14 5.5 q-6 5.5 -6 13.5 l0 14 q0 8 6 14 q6 6 14 6 l318 0 q-1 76 0 152 ZM139 506 q0 17 12 23.5 q12 6.5 29 6.5 l35 0 q17 0 29 -6.5 q12 -6.5 12 -23.5 l0 -360 q24 13 49 26.5 q25 13.5 53 27.5 q10 5 15.5 3.5 q5.5 -1.5 11.5 -8.5 q7 -8 8.5 -14 q1.5 -6 -5.5 -16 q-11 -16 -33 -43 q-22 -27 -48 -56.5 q-26 -29.5 -52.5 -57.5 q-26.5 -28 -45.5 -45 q-14 -13 -29 -11.5 q-15 1.5 -26 18.5 q-3 4 -8.5 12 q-5.5 8 -10.5 17 q-5 9 -10 17.5 q-5 8.5 -8 14.5 q-10 19 -4.5 33.5 q5.5 14.5 22.5 22.5 q0 0 4 2 l0 351 l-65 0 q-8 0 -14 5.5 q-6 5.5 -6 13.5 l0 14 q0 8 6 14 q6 6 14 6 l65 0 l0 13 ZM319 27 q-9 37 25 40 l82 8 l0 272 l-82 0 q-8 0 -14 5.5 q-6 5.5 -6 13.5 l0 14 q0 8 6 13 q6 5 14 5 l273 0 q8 0 14 -5 q6 -5 6 -13 l0 -14 q0 -8 -6 -13.5 q-6 -5.5 -14 -5.5 l-75 0 l0 -259 q26 3 52 5.5 q26 2.5 49 5.5 q11 2 15.5 -0.5 q4.5 -2.5 8.5 -10.5 q4 -10 3 -16.5 q-1 -6.5 -10 -11.5 q-14 -9 -48 -24.5 q-34 -15.5 -75.5 -33.5 q-41.5 -18 -83 -35 q-41.5 -17 -70.5 -28 q-17 -6 -27 -2.5 q-10 3.5 -17 20.5 q-2 4 -5 13 q-3 9 -6 19.5 q-3 10.5 -5.5 20.5 q-2.5 10 -3.5 17 ZM98 760 q-9 13 0 23 q9 12 24 7 q18 -5 39 -15 q21 -10 40.5 -21 q19.5 -11 35.5 -22.5 q16 -11.5 24 -19.5 q17 -18 18.5 -32 q1.5 -14 -7.5 -34 q-3 -9 -12 -23.5 q-9 -14.5 -21 -25.5 q-17 -17 -35.5 -15.5 q-18.5 1.5 -31.5 32.5 q-14 34 -31 68 q-17 34 -43 78 ZM795 744 q-6 10 3 19 q5 5 10 5.5 q5 0.5 11 -0.5 q12 -3 26 -9 q14 -6 27 -13 q13 -7 24 -15 q11 -8 18 -14 q16 -16 15.5 -29.5 q-0.5 -13.5 -8.5 -28.5 q-5 -11 -14.5 -20.5 q-9.5 -9.5 -19.5 -15.5 q-15 -9 -29.5 -6 q-14.5 3 -20.5 24 q-3 10 -8 24 q-5 14 -11 28 q-6 14 -12 27.5 q-6 13.5 -11 23.5 Z" /><glyph glyph-name="" unicode="&#x8bf4;" d="M272 -72 q47 32 81.5 64.5 q34.5 32.5 57.5 67 q23 34.5 35.5 72.5 q12.5 38 16.5 81 l6 76 q-10 -12 -25 -12 l-49 0 q-12 0 -22 9.5 q-10 9.5 -10 20.5 l0 281 q0 11 10 20.5 q10 9.5 22 9.5 l49 0 q10 0 18 -6.5 q8 -6.5 12 -14.5 l178 0 q7 21 14 44.5 q7 23.5 13 47 q6 23.5 11 45 q5 21.5 8 36.5 q3 15 16.5 18.5 q13.5 3.5 28.5 -1.5 q17 -5 32 -10.5 q15 -5.5 23 -9.5 q17 -8 18.5 -20.5 q1.5 -12.5 -8.5 -28.5 q-8 -11 -20 -26.5 q-12 -15.5 -26 -32.5 q-14 -17 -28.5 -33.5 q-14.5 -16.5 -27.5 -28.5 l65 0 q2 11 11.5 19 q9.5 8 21.5 8 l49 0 q12 0 22.5 -9.5 q10.5 -9.5 10.5 -20.5 l0 -287 q0 -11 -10.5 -20.5 q-10.5 -9.5 -22.5 -9.5 l-49 0 q-16 0 -26 12 l0 -156 q0 -35 0.5 -55.5 q0.5 -20.5 5 -31 q4.5 -10.5 16 -13.5 q11.5 -3 32.5 -4 l112 1 q25 1 18 -24 q-3 -11 -10 -26 q-7 -15 -15 -31 q-6 -14 -16 -18.5 q-10 -4.5 -30 -5.5 q-6 0 -18.5 -0.5 q-12.5 -0.5 -26.5 -0.5 q-14 0 -28.5 0 q-14.5 0 -25.5 0 q-29 1 -52 6.5 q-23 5.5 -40 20.5 q-17 15 -26 42.5 q-9 27.5 -9 73.5 l0 225 l-77 0 q-2 -34 -5.5 -66.5 q-3.5 -32.5 -5.5 -44.5 q-8 -50 -26.5 -92.5 q-18.5 -42.5 -52 -78 q-33.5 -35.5 -84.5 -64 q-51 -28.5 -125 -51.5 q-6 -2 -11.5 2 q-5.5 4 -9 9.5 q-3.5 5.5 -3 11.5 q0.5 6 6.5 10 ZM140 511 q0 11 9.5 20.5 q9.5 9.5 20.5 9.5 l61 0 q11 0 20.5 -9.5 q9.5 -9.5 9.5 -20.5 l0 -387 l100 46 q4 1 10 -1.5 q6 -2.5 10.5 -7 q4.5 -4.5 6.5 -11 q2 -6.5 -3 -12.5 q-51 -60 -93 -103.5 q-42 -43.5 -86 -81.5 q-16 -14 -33 -13.5 q-17 0.5 -28 16.5 q-5 8 -15 27 q-10 19 -16 35 q-11 36 22 49 l4 2 l0 378 l-69 0 q-8 0 -13.5 6 q-5.5 6 -5.5 14 l0 14 q0 8 5.5 13.5 q5.5 5.5 13.5 5.5 l69 0 l0 11 ZM476 340 l295 0 l0 209 l-295 0 l0 -209 ZM118 762 q-3 6 -1.5 12 q1.5 6 5.5 10.5 q4 4.5 9.5 7 q5.5 2.5 10.5 1.5 q17 -5 37.5 -14 q20.5 -9 39.5 -19 q19 -10 34.5 -20.5 q15.5 -10.5 23.5 -18.5 q16 -17 18.5 -31 q2.5 -14 -4.5 -34 q-3 -9 -11.5 -23 q-8.5 -14 -19.5 -25 q-9 -8 -19.5 -13 q-10.5 -5 -20 -4.5 q-9.5 0.5 -18 7.5 q-8.5 7 -14.5 22 q-13 37 -29 69 q-16 32 -41 73 ZM432 774 q-3 4 -1.5 8.5 q1.5 4.5 5.5 8 q4 3.5 10 5 q6 1.5 11 -0.5 q46 -20 75.5 -38.5 q29.5 -18.5 47.5 -36.5 q14 -14 17 -29 q3 -15 -5 -32 q-10 -25 -30 -42 q-16 -14 -35 -11 q-19 3 -27 28 q-13 39 -30.5 74.5 q-17.5 35.5 -37.5 65.5 Z" /><glyph glyph-name="" unicode="&#x8d35;" d="M52 422 q0 6 5 11.5 q5 5.5 12 5.5 l370 0 l0 82 l-159 0 q0 -11 -9.5 -20.5 q-9.5 -9.5 -20.5 -9.5 l-60 0 q-11 0 -20.5 9.5 q-9.5 9.5 -9.5 20.5 l0 182 q0 11 9.5 20.5 q9.5 9.5 20.5 9.5 l60 0 q9 0 17.5 -6.5 q8.5 -6.5 11.5 -15.5 l160 0 l0 52 q0 11 9.5 20.5 q9.5 9.5 20.5 9.5 l64 0 q11 0 20.5 -9.5 q9.5 -9.5 9.5 -20.5 l0 -52 l160 0 q3 9 11 15.5 q8 6.5 18 6.5 l60 0 q11 0 20.5 -9.5 q9.5 -9.5 9.5 -20.5 l0 -173 q0 -11 -9.5 -20.5 q-9.5 -9.5 -20.5 -9.5 l-60 0 q-9 0 -17 6 q-8 6 -12 15 l-160 0 l0 -82 l367 0 q6 0 11.5 -5.5 q5.5 -5.5 5.5 -11.5 l0 -17 q0 -7 -5.5 -12 q-5.5 -5 -11.5 -5 l-861 0 q-7 0 -12 5 q-5 5 -5 12 l0 17 ZM49 -91 q-2 7 -1 13 q1 6 5 7 q113 31 185 57 q72 26 114.5 54.5 q42.5 28.5 60.5 62.5 q18 34 22 82 l3 30 q0 11 9.5 20 q9.5 9 20.5 9 l66 -2 q11 1 20.5 -7.5 q9.5 -8.5 8.5 -19.5 q0 -21 -1.5 -30 q-1.5 -9 -4.5 -27 q-3 -18 -7 -34 q-4 -16 -10 -31 q48 -7 95.5 -15.5 q47.5 -8.5 89.5 -18 q42 -9.5 75 -19 q33 -9.5 53 -18.5 q24 -11 29.5 -25 q5.5 -14 2.5 -34 q-2 -11 -4 -22.5 q-2 -11.5 -9 -22.5 q-11 -21 -31 -26.5 q-20 -5.5 -49 14.5 q-51 34 -116.5 72.5 q-65.5 38.5 -154.5 77.5 q-24 -36 -63.5 -61.5 q-39.5 -25.5 -96 -44 q-56.5 -18.5 -131 -31.5 q-74.5 -13 -168.5 -24 q-5 -1 -8.5 3.5 q-3.5 4.5 -4.5 10.5 ZM181 314 q0 11 9.5 20.5 q9.5 9.5 20.5 9.5 l64 0 q8 0 16 -6 q8 -6 12 -14 l384 0 q3 8 11 14 q8 6 17 6 l64 0 q11 0 20.5 -9.5 q9.5 -9.5 9.5 -20.5 l0 -203 q0 -11 -9.5 -20.5 q-9.5 -9.5 -20.5 -9.5 l-64 0 q-11 0 -20.5 9.5 q-9.5 9.5 -9.5 20.5 l0 165 l-380 0 l0 -192 q0 -11 -9.5 -20.5 q-9.5 -9.5 -20.5 -9.5 l-64 0 q-11 0 -20.5 9.5 q-9.5 9.5 -9.5 20.5 l0 230 ZM280 569 l159 0 l0 94 l-159 0 l0 -94 ZM563 569 l159 0 l0 94 l-159 0 l0 -94 Z" /><glyph glyph-name="" unicode="&#x91cc;" d="M109 175 q0 6 5 11.5 q5 5.5 12 5.5 l309 0 l0 117 l-168 0 l0 -6 q0 -11 -9.5 -20.5 q-9.5 -9.5 -20.5 -9.5 l-66 0 q-11 0 -20.5 9.5 q-9.5 9.5 -9.5 20.5 l0 431 q0 11 9.5 20.5 q9.5 9.5 20.5 9.5 l66 0 q11 0 20.5 -9.5 q9.5 -9.5 9.5 -20.5 l0 -5 l462 0 l0 3 q0 11 9.5 20.5 q9.5 9.5 20.5 9.5 l68 0 q11 0 20.5 -9.5 q9.5 -9.5 9.5 -20.5 l0 -420 q0 -11 -9.5 -20.5 q-9.5 -9.5 -20.5 -9.5 l-68 0 q-11 0 -20 8 q-9 8 -10 19 l-168 0 l0 -117 l314 0 q6 0 11.5 -5.5 q5.5 -5.5 5.5 -11.5 l0 -18 q0 -7 -5.5 -12 q-5.5 -5 -11.5 -5 l-314 0 l0 -139 l369 0 q6 0 11.5 -5 q5.5 -5 5.5 -12 l0 -19 q0 -6 -5.5 -11.5 q-5.5 -5.5 -11.5 -5.5 l-859 0 q-7 0 -12 5.5 q-5 5.5 -5 11.5 l0 19 q0 7 5 12 q5 5 12 5 l364 0 l0 139 l-309 0 q-7 0 -12 5 q-5 5 -5 12 l0 18 ZM267 359 l168 0 l0 135 l-168 0 l0 -135 ZM561 544 l168 0 l0 135 l-168 0 l0 -135 ZM267 544 l168 0 l0 135 l-168 0 l0 -135 ZM561 359 l168 0 l0 135 l-168 0 l0 -135 Z" /><glyph glyph-name="" unicode="&#x957f;" d="M56 396 q0 8 6 13.5 q6 5.5 14 5.5 l142 0 l0 347 q0 11 9.5 20.5 q9.5 9.5 20.5 9.5 l68 0 q11 0 20.5 -9.5 q9.5 -9.5 9.5 -20.5 l0 -246 q114 57 202.5 116 q88.5 59 152.5 115 q12 10 25 12.5 q13 2.5 29 -7.5 q14 -9 31.5 -25 q17.5 -16 28.5 -27 q11 -11 8.5 -21.5 q-2.5 -10.5 -12.5 -18.5 q-27 -22 -77.5 -48.5 q-50.5 -26.5 -114 -52 q-63.5 -25.5 -134.5 -47 q-71 -21.5 -139 -34.5 l0 -63 l582 0 q8 0 13.5 -5.5 q5.5 -5.5 5.5 -13.5 l0 -16 q0 -8 -5.5 -14 q-5.5 -6 -13.5 -6 l-382 0 q33 -48 69.5 -88 q36.5 -40 81.5 -75 q45 -35 100.5 -66 q55.5 -31 126.5 -62 q14 -5 14 -18 q0 -13 -7 -21 q-16 -19 -39 -43.5 q-23 -24.5 -46 -43.5 q-15 -12 -25.5 -12 q-10.5 0 -24.5 8 q-119 78 -189 187.5 q-70 109.5 -99 233.5 l-162 0 l0 -285 l221 37 q7 2 12.5 -3.5 q5.5 -5.5 8.5 -14 q3 -8.5 2 -16 q-1 -7.5 -7 -10.5 q-27 -16 -65 -35.5 q-38 -19.5 -82.5 -40.5 q-44.5 -21 -93.5 -42.5 q-49 -21.5 -98 -40.5 q-14 -5 -25.5 -2.5 q-11.5 2.5 -19.5 16.5 q-7 15 -16.5 40.5 q-9.5 25.5 -15.5 44.5 q-4 12 1.5 25.5 q5.5 13.5 24.5 16.5 l25 4 l0 306 l-142 0 q-8 0 -14 6 q-6 6 -6 14 l0 16 Z" /></font>
</defs>
</svg>
